<?xml version="1.0" standalone="no"?>
<!DOCTYPE svg PUBLIC "-//W3C//DTD SVG 1.1//EN" "http://www.w3.org/Graphics/SVG/1.1/DTD/svg11.dtd" >
<svg xmlns="http://www.w3.org/2000/svg" xmlns:xlink="http://www.w3.org/1999/xlink" version="1.1">
<metadata></metadata>
<defs>
<font id="bodonino1urwtitalic" horiz-adv-x="1092" vert-adv-y="2048" >
<font-face units-per-em="2048" ascent="1506" descent="-542" />
<missing-glyph horiz-adv-x="512" />
<glyph horiz-adv-x="0" vert-adv-y="0" />
<glyph horiz-adv-x="682" />
<glyph unicode=" " horiz-adv-x="512" vert-adv-y="2457" />
<glyph unicode="!" horiz-adv-x="637" vert-adv-y="2457" d="M140 91q0 62 43 110q40 45 96 45q38 0 67 -26q36 -32 36 -88q0 -61 -39 -107q-40 -46 -94 -46q-46 0 -80 34q-29 30 -29 78zM301 344q24 87 51 194q37 132 44 175q39 213 39 328q0 35 -5 95q58 29 94 66q47 49 72 106q15 33 34 85h27q-19 -79 -19 -117q0 -41 15 -81 q11 -31 57 -61q-87 -59 -212 -347q-63 -147 -95 -254q-26 -86 -59 -189h-43z" />
<glyph unicode="&#x22;" horiz-adv-x="383" vert-adv-y="2457" d="M206 843l142 525h69l-153 -525h-58zM370 843l142 525h69l-153 -525h-58z" />
<glyph unicode="#" horiz-adv-x="1147" vert-adv-y="2457" d="M127 519l11 78h306l68 217h-285l11 79h299l153 486h82l-152 -486h227l155 486h76l-151 -486h272l-11 -79h-285l-68 -217h267l-11 -78h-281l-164 -519h-78l162 519h-228l-164 -519h-81l162 519h-292zM526 597h229l68 217h-228z" />
<glyph unicode="$" vert-adv-y="2457" d="M-70 42q86 202 109 267q21 54 80 232h58q-39 -135 -39 -226q0 -115 93 -189q72 -56 153 -79l163 578q-118 65 -163 108q-92 89 -92 244q0 137 77 243q67 91 176 139q71 30 189 34h30l57 203h63l-58 -206q57 -15 101 -32q32 -13 113 -64q28 -17 45 -17q14 0 24 10 q9 9 37 58h52q-70 -208 -131 -424h-58q25 108 25 150q0 66 -43 134q-58 93 -182 122l-137 -484q114 -60 152 -82q114 -69 155 -162q28 -66 28 -144q0 -106 -48 -206q-72 -150 -221 -223q-108 -53 -228 -53q-27 0 -82 5l-78 -275h-63l79 280q-96 33 -121 50q-19 10 -92 61 q-52 37 -80 37q-43 0 -81 -89h-62zM398 1089q0 -72 48 -118q52 -49 170 -104l131 468q-25 1 -38 1q-139 0 -236 -85q-75 -66 -75 -162zM444 34q54 -5 84 -5q154 0 245 105q73 85 73 204q0 104 -78 173q-33 30 -165 87z" />
<glyph unicode="%" horiz-adv-x="1693" vert-adv-y="2457" d="M251 923q0 187 119 323q110 126 253 126q131 0 195 -117q35 -65 35 -143q0 -153 -101 -288q-63 -83 -152 -130q-60 -32 -123 -32q-104 0 -171 86q-55 70 -55 175zM387 821q0 -59 38 -88q22 -16 52 -16q82 0 120 93t76 229q35 124 35 183q0 36 -20 62q-27 32 -77 32 q-62 0 -97 -59q-31 -52 -92 -268q-35 -124 -35 -168zM451 -41l847 1429h81l-846 -1429h-82zM1007 248q0 188 119 323q111 126 253 126q131 0 195 -117q35 -64 35 -145q0 -151 -101 -285q-63 -84 -152 -131q-60 -32 -123 -32q-105 0 -172 86q-54 70 -54 175zM1143 146 q0 -60 38 -88q22 -16 52 -16q82 0 120 93t76 229q35 124 35 183q0 36 -20 62q-27 32 -77 32q-62 0 -97 -59q-32 -53 -92 -268q-35 -123 -35 -168z" />
<glyph unicode="&#x26;" horiz-adv-x="1379" vert-adv-y="2457" d="M64 319q0 179 166 301q92 66 238 127q-41 114 -41 214q0 157 114 257q89 77 201 77q105 0 163 -76q43 -54 43 -123q0 -158 -167 -257q-45 -27 -113 -57q49 -135 174 -363q33 49 86 98q55 50 108 82q55 33 121 33q71 0 114 -48q30 -34 30 -80q0 -50 -36 -87 q-37 -38 -86 -38q-43 0 -73 25q-40 33 -40 88q0 11 2 31q1 7 1 11q0 13 -10 13q-12 0 -73 -48q-73 -57 -118 -127q69 -120 122 -180q62 -72 128 -72q42 0 70 30q27 30 64 111h49q-31 -97 -73 -157q-88 -124 -210 -124q-97 0 -178 83q-48 49 -106 142q-87 -101 -151 -146 q-117 -83 -221 -83q-113 0 -206 104q-92 104 -92 239zM253 446q0 -126 91 -238q78 -97 171 -97q42 0 85 33q45 34 105 102q-52 90 -127 242q-60 126 -91 210q-64 -29 -92 -44q-67 -35 -106 -95q-36 -53 -36 -113zM597 1046q0 -84 53 -220q237 100 237 266q0 64 -45 105 q-45 42 -103 42q-67 0 -108 -61q-34 -52 -34 -132z" />
<glyph unicode="'" horiz-adv-x="219" vert-adv-y="2457" d="M206 843l142 525h69l-153 -525h-58z" />
<glyph unicode="(" horiz-adv-x="533" vert-adv-y="2457" d="M60 -31q0 364 120 703q86 242 215 430q90 131 297 352l59 -50q-151 -154 -239 -278q-365 -511 -365 -1152q0 -135 15 -257q12 -93 48 -234l-85 -30q-65 251 -65 516z" />
<glyph unicode=")" horiz-adv-x="533" vert-adv-y="2457" d="M-180 -497q151 155 240 278q365 511 365 1153q0 135 -15 256q-12 93 -48 234l84 30q66 -248 66 -516q0 -363 -120 -702q-86 -242 -215 -431q-90 -131 -297 -351z" />
<glyph unicode="*" horiz-adv-x="1147" vert-adv-y="2457" d="M365 1222q0 17 15 28q11 9 30 9q17 0 57 -11q11 54 39 54q18 0 34 -29q79 -135 205 -203q9 74 9 116q0 100 -31 164q-4 9 -4 19q0 11 9 19q9 10 22 10q17 0 42 -12q34 67 65 67t31 -64q0 -9 -1 -26q26 4 32 4q30 0 30 -22q0 -14 -21 -35q-82 -109 -122 -245 q167 24 266 92q24 17 35 17q23 0 23 -34q0 -9 -5 -29q87 -7 87 -38q0 -29 -76 -56q10 -26 10 -39q0 -20 -17 -30q-8 -5 -17 -5q-8 0 -23 8q-132 63 -283 61q80 -141 193 -220q21 -13 21 -29q0 -33 -56 -36q6 -30 6 -46q0 -50 -41 -50q-11 0 -25 14q-1 2 -19 25l-18 22 q-36 -25 -54 -25q-20 0 -20 27q0 5 1 15q2 22 2 46q0 125 -45 231q-55 -42 -115 -144q-19 -34 -32 -68l-5 -14q-17 -50 -46 -50q-22 0 -33 44q-40 -27 -66 -27q-31 0 -31 24q0 21 34 76q-46 22 -46 43q0 22 46 32q50 12 108 35q91 38 154 83q-157 65 -292 69q-41 1 -41 24 q0 19 31 45q-52 43 -52 64z" />
<glyph unicode="+" vert-adv-y="2457" d="M183 658v61h417v443h60v-443h419v-61h-419v-444h-60v444h-417z" />
<glyph unicode="," horiz-adv-x="541" vert-adv-y="2457" d="M0 -331q110 69 153 103q70 54 107 136q17 37 17 76q0 27 -16 27q-6 0 -20 -10q-28 -21 -55 -21q-68 0 -104 57q-18 27 -18 60q0 66 56 107q36 26 79 26q59 0 99 -42q55 -59 55 -147q0 -130 -109 -248q-85 -91 -218 -163z" />
<glyph unicode="-" horiz-adv-x="422" vert-adv-y="2457" d="M-3 375l30 107h422l-30 -107h-422z" />
<glyph unicode="." horiz-adv-x="541" vert-adv-y="2457" d="M112 91q0 62 43 110q40 45 96 45q38 0 67 -26q36 -32 36 -88q0 -62 -39 -107q-40 -46 -94 -46q-46 0 -80 34q-29 30 -29 78z" />
<glyph unicode="/" horiz-adv-x="734" vert-adv-y="2457" d="M-230 -526l1000 1960h109l-1000 -1960h-109z" />
<glyph unicode="0" vert-adv-y="2457" d="M145 460q0 275 137 533q117 221 292 327q112 69 219 69q106 0 182 -70q142 -132 142 -374q0 -198 -74 -409q-86 -246 -245 -402q-161 -158 -330 -158q-105 0 -172 68q-71 73 -111 187q-40 116 -40 229zM323 237q0 -201 155 -201q73 0 118 46q114 114 235 501 q103 327 103 547q0 199 -142 199q-51 0 -88 -20.5t-77 -72.5q-108 -139 -220 -518q-84 -285 -84 -481z" />
<glyph unicode="1" vert-adv-y="2457" d="M232 0l17 57h194l318 1126q-194 -122 -397 -198l-19 47q186 81 286 136q129 73 355 236h43l-380 -1347h188l-17 -57h-588z" />
<glyph unicode="2" vert-adv-y="2457" d="M7 0q54 246 464 480q214 127 300 243q121 164 121 348q0 97 -49 158q-27 35 -65 56q-77 44 -170 44q-147 0 -240 -78q-61 -52 -61 -112q0 -45 52 -87q87 -71 87 -125q0 -34 -26 -63q-28 -32 -70 -32q-54 0 -87 58q-35 63 -35 148q0 145 97 239q51 49 134 79q91 33 196 33 q143 0 263 -57q196 -94 196 -293q0 -131 -74 -256q-69 -116 -181 -182q-104 -61 -279 -140q-172 -79 -239 -125q-121 -85 -171 -146h662q23 0 32 7t29 36l47 70l44 -24q-77 -136 -144 -279h-833z" />
<glyph unicode="3" vert-adv-y="2457" d="M80 230q0 99 76 156q43 32 92 32q45 0 77 -30q31 -29 31 -68q0 -50 -40 -91q-28 -30 -79 -30q-13 0 -38 6q-16 4 -18 4q-8 0 -15 -9.5t-7 -18.5q0 -28 43 -69q81 -76 233 -76q169 0 244 134q36 66 58 147q28 105 28 197q0 124 -87 169q-92 48 -257 48h-106l17 62h185 q73 0 154 20q117 28 171 139q42 88 42 192q0 185 -215 185q-136 0 -212 -62q-36 -29 -36 -53q0 -12 16 -15q94 -13 94 -98q0 -43 -26 -73q-30 -34 -79 -34q-48 0 -78 34q-31 34 -31 89q0 77 48 140q103 132 328 132q151 0 259 -62q143 -81 143 -225q0 -108 -82 -198 q-77 -83 -221 -130q-33 -11 -66 -17q264 -71 264 -309q0 -146 -93 -263q-104 -128 -285 -181q-95 -28 -183 -28q-172 0 -274 93q-75 68 -75 161z" />
<glyph unicode="4" vert-adv-y="2457" d="M-3 394q383 378 572 577q150 160 392 442l40 -33q-273 -315 -468 -517q-122 -125 -329 -328h452l122 432l240 142l-162 -574h225l-40 -141h-225l-95 -337h165l-16 -57h-532l16 57h167l95 337h-619z" />
<glyph unicode="5" vert-adv-y="2457" d="M48 235q0 93 60 142q30 24 66 24q50 0 81 -44q27 -39 27 -86q0 -55 -38 -94q-8 -9 -54 -38q-13 -8 -13 -24q0 -26 29 -45q57 -38 153 -38q178 0 282 127q56 68 97 188q47 136 47 256q0 118 -78 175q-63 46 -144 46q-64 0 -125 -34q-87 -49 -116 -121q-22 -52 -38 -66 q-6 -4 -18 -4q-21 0 -21 20q0 6 1 8l212 754q159 -62 242 -77q66 -12 123 -12q76 0 135 19q64 21 140 103q-1 -78 -12 -111.5t-51 -76.5q-112 -122 -323 -122q-119 0 -258 34l-97 -339q106 94 275 94q176 0 279 -100q99 -95 99 -242q0 -158 -118 -306q-138 -172 -345 -239 q-98 -32 -192 -32q-128 0 -214 72q-93 79 -93 189z" />
<glyph unicode="6" vert-adv-y="2457" d="M118 468q0 227 133 452q151 254 406 373q98 46 223 69q95 18 175 18q21 0 58 -1l-16 -54q-138 1 -271 -38q-130 -41 -213 -131q-102 -111 -207 -404q80 59 138 78q71 24 152 24q176 0 281 -108q98 -100 98 -245q0 -127 -70 -248q-79 -139 -228 -218q-118 -62 -243 -62 q-194 0 -307 144q-109 139 -109 351zM305 301q0 -125 46 -186q61 -79 198 -79q119 0 180 90q60 91 110 274q29 106 29 181q0 211 -203 211q-93 0 -175 -49q-91 -55 -137 -166q-48 -119 -48 -276z" />
<glyph unicode="7" vert-adv-y="2457" d="M239 1021q75 184 137 381h56l-10 -36l-2 -6q0 -3 45 -20q100 -39 315 -39q185 0 297 27q89 21 172 78l32 -36q-117 -149 -132 -169q-49 -67 -158 -224q-149 -213 -187 -278q-107 -183 -149 -272q-50 -106 -50 -174q0 -36 30 -44q101 -25 101 -114q0 -43 -25 -75 q-33 -43 -88 -43q-56 0 -89 42q-35 44 -35 109q0 147 141 410q122 229 398 608q-76 -30 -149 -38q-143 -16 -235 -16q-161 0 -264 25q-22 5 -29 6t-18 7l-1 -7l-57 -125z" />
<glyph unicode="8" vert-adv-y="2457" d="M105 275q0 115 79 229q60 85 156 146q38 24 117 63q-40 47 -63 81q-60 89 -60 196q0 166 133 286q126 113 310 113q154 0 240 -75q85 -73 85 -180q0 -91 -66 -181q-66 -91 -253 -193q202 -198 202 -374q0 -130 -82 -235q-79 -101 -217 -145q-90 -29 -196 -29 q-167 0 -273 84q-112 89 -112 214zM168 295q0 -79 61 -149q95 -109 273 -109q144 0 234 76q77 66 77 151q0 124 -162 275q-43 40 -98 87q-52 44 -53 44q-43 -20 -65 -31q-117 -59 -182 -137q-85 -101 -85 -207zM491 1136q0 -73 56 -146q36 -46 123 -129q64 -61 65 -61 q12 6 24 11q57 27 98 55q183 120 183 253q0 61 -45 116q-76 94 -241 94q-105 0 -174 -44q-89 -57 -89 -149z" />
<glyph unicode="9" horiz-adv-x="1093" vert-adv-y="2457" d="M137 -21l15 52q195 9 330 66q156 67 256 239q76 133 124 293q-114 -112 -301 -112q-163 0 -267 97q-109 102 -109 272q0 194 152 341q165 162 386 162q200 0 315 -152q105 -139 105 -337q0 -189 -93 -381q-123 -253 -364 -398q-158 -95 -371 -130q-76 -13 -138 -13 q-13 0 -40 1zM383 763q0 -71 30 -114q52 -74 161 -74q105 0 199 57q117 71 164 266q24 96 24 178q0 253 -250 253q-135 0 -197 -102q-67 -107 -110 -298q-21 -93 -21 -166z" />
<glyph unicode=":" horiz-adv-x="582" vert-adv-y="2457" d="M153 91q0 62 43 110q40 45 96 45q38 0 67 -26q36 -32 36 -88q0 -62 -39 -107q-40 -46 -94 -46q-46 0 -80 34q-29 30 -29 78zM299 610q0 62 43 110q40 45 96 45q39 0 68 -26q36 -32 36 -88q0 -61 -40 -107q-39 -46 -94 -46q-47 0 -80 34q-29 30 -29 78z" />
<glyph unicode=";" horiz-adv-x="582" vert-adv-y="2457" d="M41 -331q113 72 151.5 103t69.5 76q56 81 56 138q0 26 -16 26q-7 0 -20 -11q-25 -21 -63 -21q-61 0 -96 55q-18 28 -18 59q0 69 57 110q36 26 79 26q59 0 98 -42q56 -60 56 -147q0 -129 -110 -248q-84 -91 -218 -163zM265 609q0 62 43 111q41 45 97 45q38 0 67 -26 q36 -32 36 -88q0 -61 -39 -107q-40 -46 -94 -46q-47 0 -81 34q-29 30 -29 77z" />
<glyph unicode="&#x3c;" horiz-adv-x="1024" vert-adv-y="2457" d="M150 639v64l887 390v-70l-811 -352l811 -353v-70z" />
<glyph unicode="=" vert-adv-y="2457" d="M184 544v61h895v-61h-895zM184 772v61h895v-61h-895z" />
<glyph unicode="&#x3e;" horiz-adv-x="1024" vert-adv-y="2457" d="M150 248v70l811 353l-811 353v69l887 -390v-65z" />
<glyph unicode="?" horiz-adv-x="850" vert-adv-y="2457" d="M103 90q0 62 43 111q40 45 96 45q38 0 67 -26q36 -32 36 -87q0 -63 -39 -108q-39 -46 -93 -46q-47 0 -81 34q-29 30 -29 77zM255 368l76 231q42 101 67 163q29 70 86 100q32 17 161 65q244 89 244 230q0 90 -93 143q-64 37 -159 37q-103 0 -154 -44q-33 -27 -33 -60 q0 -16 9 -22q3 -2 38 -10q23 -6 39 -28q15 -22 15 -48q0 -60 -52 -92q-24 -14 -50 -14q-39 0 -68 28q-34 34 -34 93q0 130 126 206q77 46 178 46q164 0 253 -109q64 -78 64 -191q0 -135 -79 -218q-73 -76 -186 -131q-66 -31 -164 -75q-78 -35 -118 -60q-34 -22 -45 -50 l-70 -190h-51z" />
<glyph unicode="@" horiz-adv-x="1502" vert-adv-y="2457" d="M143 684q0 207 105 381q105 175 286 267q152 78 316 78q171 0 326 -82q170 -90 250 -250q58 -115 58 -257q0 -268 -186 -438q-120 -109 -230 -109q-60 0 -110 37q-33 24 -39 102q-75 -91 -135 -119q-58 -27 -119 -27q-106 0 -166 73q-82 97 -82 236q0 208 150 365 q88 93 194 137q77 32 145 32q127 0 164 -127l23 83h165l-178 -622q-10 -37 -10 -60q0 -21 10 -33q14 -16 38 -16q28 0 81 35q114 76 180 219q53 115 53 237q0 214 -166 367q-176 162 -414 162q-260 0 -450 -181q-207 -197 -207 -489q0 -293 205 -486q90 -85 207 -131 q111 -43 225 -43q188 0 349 108q168 111 221 263h63q-46 -123 -137 -215q-96 -98 -221 -152q-132 -57 -274 -57q-274 0 -472 190q-103 99 -160 233q-58 137 -58 289zM566 451q0 -72 41 -108q27 -24 73 -24q105 0 197 112q54 67 76 142l87 305q1 4 1 12q0 44 -15 85 q-30 82 -120 82q-158 0 -246 -218q-30 -74 -61 -186q-33 -123 -33 -202z" />
<glyph unicode="A" horiz-adv-x="1209" vert-adv-y="2457" d="M-102 0l16 57h54q34 0 48 9q29 15 60 63l875 1292h77l-14 -1364h130l-16 -57h-500l16 57h150l10 424h-414l-221 -319q-14 -20 -39 -71q-8 -16 -8 -21q0 -13 61 -13h87l-16 -57h-356zM423 539h380l10 585z" />
<glyph unicode="B" horiz-adv-x="1392" vert-adv-y="2457" d="M-3 0l16 57h160l353 1251h-178l16 57h523q189 0 260 -13q147 -27 210 -123q43 -67 43 -149q0 -145 -132 -254q-60 -50 -128 -78q-45 -20 -115 -42q129 -38 176 -81q88 -78 88 -204q0 -149 -129 -260q-133 -114 -343 -145q-106 -16 -244 -16h-576zM388 57h278 q110 0 179 26q111 43 172 198q42 108 42 193q0 87 -62 142q-45 40 -126 50q-39 5 -116 5h-194zM577 729h217q174 0 256 76q70 65 104 182q20 69 20 138q0 92 -50 136q-32 28 -79 38q-41 9 -121 9h-183z" />
<glyph unicode="C" horiz-adv-x="1341" vert-adv-y="2457" d="M160 544q0 280 180 514q137 178 331 273q141 69 278 69q133 0 246 -60q31 -17 79 -50q40 -27 64 -27q23 0 33 17q4 6 9 21l12 30h53l-102 -489h-64l21 73q9 33 9 76q0 201 -162 296q-89 52 -202 52q-159 0 -271 -130q-141 -164 -227 -441q-62 -199 -62 -363 q0 -162 77 -259q92 -116 266 -116q191 0 343 138q78 71 163 208l47 -29q-78 -135 -156 -208q-180 -169 -416 -169q-260 0 -419 193q-130 157 -130 381z" />
<glyph unicode="D" horiz-adv-x="1479" vert-adv-y="2457" d="M-3 0l16 57h160l353 1251h-178l16 57h515q138 0 215 -17q225 -52 328 -255q61 -121 61 -267q0 -162 -74 -330q-130 -293 -366 -420q-105 -56 -242 -68q-85 -8 -228 -8h-576zM390 57h248q167 0 256 47q148 79 240 309q132 331 132 567q0 154 -90 249q-61 63 -205 75 q-50 4 -173 4h-55z" />
<glyph unicode="E" horiz-adv-x="1293" vert-adv-y="2457" d="M-3 0l16 57h160l353 1251h-178l16 57h1016l-53 -393h-58q7 75 7 109q0 80 -30 138q-45 89 -157 89h-347l-154 -543h83q109 1 149 24q42 23 55 73l31 110h57l-119 -533h-56l22 119q5 30 5 47q0 49 -45 79q-32 22 -81 22h-117l-183 -649h291q147 1 210 27q107 45 168 126 q40 53 70 159l20 70h62l-98 -439h-1115z" />
<glyph unicode="F" horiz-adv-x="1140" vert-adv-y="2457" d="M-3 0l16 57h160l353 1251h-178l16 57h970l-57 -394h-54l4 88q1 11 1 25q0 96 -45 156q-52 68 -152 68h-289l-154 -543h109q67 0 104 23q34 20 51 79l29 104h55l-116 -528h-58l25 132q3 15 3 33q0 97 -103 97h-115l-183 -648h186l-17 -57h-561z" />
<glyph unicode="G" horiz-adv-x="1425" vert-adv-y="2457" d="M165 541q0 200 112 401q136 243 374 367q168 87 333 87q122 0 211 -53q41 -24 132 -93q54 -42 79 -42q10 0 16 8t30 61h57l-140 -497h-58q17 107 17 165q0 108 -35 189q-36 82 -102 132q-94 71 -227 71q-189 0 -301 -155q-102 -140 -190 -362q-107 -272 -107 -475 q0 -186 136 -266q88 -52 207 -52q92 0 162 38q81 45 100 111l78 275h-145l16 57h509l-16 -57h-137l-63 -224q-10 -34 -37 -61q-74 -75 -210 -134q-145 -64 -285 -64q-182 0 -320 122q-77 68 -126 162q-70 134 -70 289z" />
<glyph unicode="H" horiz-adv-x="1640" vert-adv-y="2457" d="M-3 0l16 57h160l353 1251h-178l16 57h556l-17 -57h-159l-163 -578h672l163 578h-178l17 57h554l-16 -57h-160l-353 -1251h178l-16 -57h-555l16 57h160l173 613h-672l-173 -613h177l-16 -57h-555z" />
<glyph unicode="I" horiz-adv-x="749" vert-adv-y="2457" d="M-3 0l16 57h160l353 1251h-178l16 57h554l-16 -57h-160l-352 -1251h177l-16 -57h-554z" />
<glyph unicode="J" horiz-adv-x="847" vert-adv-y="2457" d="M-63 39q0 84 54 136q34 33 87 33q55 0 89 -35q32 -32 32 -80q0 -53 -36 -89q-35 -36 -84 -36q-8 0 -22 2l-16 2q-7 0 -7 -4q0 -10 16 -25q26 -24 82 -24q81 0 124 47q25 27 42 86l354 1256h-178l17 57h553l-16 -57h-160l-290 -1027q-28 -100 -62 -157q-67 -109 -162 -183 q-108 -83 -221 -83q-118 0 -167 81q-29 47 -29 100z" />
<glyph unicode="K" horiz-adv-x="1394" vert-adv-y="2457" d="M-3 0l16 57h160l353 1251h-178l16 57h554l-16 -57h-160l-164 -583l706 535q23 18 23 31q0 17 -33 17h-118l16 57h449l-16 -57h-79q-86 -2 -219 -104l-591 -440l513 -707h113l-16 -57h-523l16 57h136l-401 583l-164 -583h177l-16 -57h-554z" />
<glyph unicode="L" horiz-adv-x="1291" vert-adv-y="2457" d="M-3 0l16 57h160l353 1251h-178l16 57h554l-16 -57h-160l-353 -1251h325h4q112 0 222 59t191 198q38 65 85 211h58l-162 -525h-1115z" />
<glyph unicode="M" horiz-adv-x="1738" vert-adv-y="2457" d="M-3 0l16 57h83q32 -1 55 16q23 14 52 115l316 1120h-178l17 57h388l78 -1046l714 1046h369l-16 -57h-160l-353 -1251h178l-16 -57h-548l16 57h161l319 1132q-388 -561 -810 -1189h-50q-39 641 -82 1189l-278 -988q-19 -65 -19 -89q0 -55 63 -55h84l-16 -57h-383z" />
<glyph unicode="N" horiz-adv-x="1551" vert-adv-y="2457" d="M-2 0l16 57h95q35 0 56 35q21 33 41 104l314 1112h-178l16 57h393l447 -1097l262 930q15 52 15 71q0 39 -52 39h-101l16 57h384l-17 -57h-85q-67 -3 -86 -87l-351 -1244h-91l-527 1271l-304 -1080q-12 -43 -12 -64q0 -20 18 -34q17 -13 33 -13h98l-16 -57h-384z" />
<glyph unicode="O" horiz-adv-x="1431" vert-adv-y="2457" d="M165 536q0 174 72 340q148 340 437 468q116 51 242 51q216 0 366 -169q147 -166 147 -402q0 -196 -89 -384q-108 -228 -298 -357q-170 -115 -367 -115q-168 0 -299 99q-211 160 -211 469zM381 345q0 -156 88 -240q81 -78 231 -78q109 0 203 50q111 59 187 271 q44 124 98 391q36 176 36 287q0 171 -108 248q-86 61 -226 61q-180 0 -267 -123q-121 -170 -201 -544q-41 -189 -41 -323z" />
<glyph unicode="P" horiz-adv-x="1263" vert-adv-y="2457" d="M-3 0l16 57h160l353 1251h-178l16 57h505q271 0 365 -63q70 -47 106 -122q32 -66 32 -141q0 -190 -186 -313q-152 -101 -396 -101h-242l-160 -568h177l-16 -57h-552zM564 683h191q182 0 278 105q66 73 94 185q15 58 15 115q0 99 -49 158q-52 62 -162 62h-190z" />
<glyph unicode="Q" horiz-adv-x="1431" vert-adv-y="2457" d="M159 505q0 265 156 507q117 182 297 290q155 93 332 93q143 0 263 -75q148 -94 203 -298q24 -87 24 -183q0 -200 -101 -393q-81 -155 -202 -269t-253 -160q-57 -21 -134 -35l-24 -85q-22 -79 -22 -132q0 -43 28 -72q47 -48 189 -48h99v-60h-110q-224 0 -331 72 q-93 62 -93 151q0 34 10 70l33 117q-100 32 -166 84q-198 156 -198 426zM368 350q0 -122 49 -205q28 -47 76 -74q73 -42 168 -42q109 0 215 51q142 69 226 336q51 160 96 363q41 182 41 277q0 82 -39 152q-72 127 -286 127q-183 0 -274 -124q-112 -152 -221 -543 q-51 -182 -51 -318z" />
<glyph unicode="R" horiz-adv-x="1339" vert-adv-y="2457" d="M-3 0l16 57h160l353 1251h-178l16 57h514q177 0 252 -26q121 -43 165 -143q23 -51 23 -110q0 -175 -170 -291q-95 -64 -219 -90q64 -23 101 -59q72 -73 72 -169q0 -64 -29 -178q-35 -139 -35 -199q0 -47 39 -47q51 0 121 96l45 -28q-49 -66 -86 -92q-59 -42 -126 -42 q-100 0 -155 87q-34 54 -34 113q0 43 42 242q23 110 23 144q0 110 -124 110h-219l-176 -626h177l-16 -57h-552zM581 742h174q175 0 269 132q79 112 79 254q0 102 -56 146q-44 34 -148 34h-159z" />
<glyph unicode="S" horiz-adv-x="1127" vert-adv-y="2457" d="M3 0q71 211 88 278q16 55 56 233h66l-26 -91q-10 -37 -10 -74q0 -69 34 -134q59 -111 196 -155q65 -21 137 -21q134 0 227 66q57 41 91 113q27 58 27 121q0 135 -120 208q-36 22 -148 66q-156 63 -225 122q-98 83 -98 248q0 143 85 254q84 109 230 147q63 17 129 17 q93 0 183 -36q30 -12 113 -56q21 -12 41 -12q28 0 48 71h61l-123 -436h-61l26 94q9 32 9 65q0 110 -93 179q-92 69 -220 69q-135 0 -232 -76q-84 -67 -84 -168q0 -88 74 -150q33 -27 234 -115q136 -59 170 -82q153 -103 153 -280q0 -201 -141 -339q-75 -74 -177 -114 q-97 -39 -196 -39q-129 0 -291 81q-64 32 -92 32q-29 0 -47 -27q-10 -14 -28 -59h-66z" />
<glyph unicode="T" horiz-adv-x="1288" vert-adv-y="2457" d="M173 895l133 470h1229l-133 -470h-60l28 98q9 34 9 80q0 116 -53 179q-48 56 -118 56h-198l-353 -1251h178l-17 -57h-551l16 57h160l352 1251h-160q-112 0 -209 -77q-126 -100 -168 -249l-25 -87h-60z" />
<glyph unicode="U" horiz-adv-x="1520" vert-adv-y="2457" d="M224 285q0 48 18 113l257 910h-178l17 57h550l-16 -57h-160l-254 -902q-23 -82 -23 -149q0 -104 73 -163q78 -64 229 -64q138 0 251 47q120 50 184 171q36 70 66 176l223 788q11 40 11 53q0 43 -49 43h-129l17 57h402l-17 -57h-72q-45 0 -63 -16q-26 -24 -34 -58 l-239 -847q-58 -205 -176 -300q-145 -117 -404 -117q-218 0 -352 95q-132 93 -132 220z" />
<glyph unicode="V" horiz-adv-x="1083" vert-adv-y="2457" d="M214 2l208 1306h-146l16 57h518l-16 -57h-154l-158 -956l689 887q21 27 21 48t-37 21h-92l16 57h300l-16 -57h-47h-2q-22 0 -62 -53l-987 -1276z" />
<glyph unicode="W" horiz-adv-x="1623" vert-adv-y="2457" d="M210 5l214 1303h-148l16 57h504l-17 -57h-148l-155 -949l467 587l53 362h-120l17 57h512l-17 -57h-177l-161 -949l672 894q11 15 11 32q0 23 -49 23h-81l16 57h300l-17 -57h-49q-30 -3 -83 -81q-532 -705 -792 -1062q-88 -121 -142 -188l-43 28l129 831 q-451 -569 -666 -859z" />
<glyph unicode="X" horiz-adv-x="1163" vert-adv-y="2457" d="M-61 0l16 57h89q66 3 117 68l417 520l-192 663h-154l17 57h501l-16 -57h-127l133 -459l254 315q64 79 64 119q0 25 -41 25h-109l16 57h375l-16 -57h-79q-29 -1 -74 -61l-369 -461l209 -729h127l-16 -57h-489l16 57h138l-152 524l-356 -447q-20 -25 -20 -45q0 -10 8 -20 q11 -12 28 -12h88l-16 -57h-387z" />
<glyph unicode="Y" horiz-adv-x="1013" vert-adv-y="2457" d="M93 0l16 57h160l151 536l-85 715h-148l16 57h531l-17 -57h-165l66 -661l443 583q26 35 26 61q0 17 -23 17h-120l17 57h321l-16 -57h-59q-19 -1 -47 -39l-535 -706l-143 -506h178l-16 -57h-551z" />
<glyph unicode="Z" horiz-adv-x="1203" vert-adv-y="2457" d="M-20 0l1075 1308h-345q-158 0 -274 -93q-48 -40 -88 -107q-36 -60 -46 -100l-15 -52h-58l115 409h1011l-1067 -1308h361q138 1 204 25q106 38 190 153q58 79 72 135l16 55h56l-120 -425h-1087z" />
<glyph unicode="[" horiz-adv-x="533" vert-adv-y="2457" d="M-129 -526l553 1960h353l-19 -67h-269l-514 -1826h268l-19 -67h-353z" />
<glyph unicode="\" horiz-adv-x="734" vert-adv-y="2457" d="M245 -526l105 1960h100l-105 -1960h-100z" />
<glyph unicode="]" horiz-adv-x="533" vert-adv-y="2457" d="M-206 -526l19 67h268l515 1826h-268l19 67h353l-553 -1960h-353z" />
<glyph unicode="^" horiz-adv-x="1024" vert-adv-y="2457" d="M163 790l386 576h90l386 -576h-83l-350 522l-348 -522h-81z" />
<glyph unicode="_" horiz-adv-x="1024" vert-adv-y="2457" d="M0 -224h1024v-61h-1024v61z" />
<glyph unicode="`" horiz-adv-x="1024" vert-adv-y="2457" d="M460 1275q0 36 32 61q23 17 55 17q53 0 82 -43q18 -27 40 -83l112 -282h-52l-183 194q-86 89 -86 136z" />
<glyph unicode="a" horiz-adv-x="1155" vert-adv-y="2457" d="M81 329q0 221 211 385q176 137 364 137q55 0 99 -18q49 -20 98 -98l20 71h182l-182 -644q-11 -40 -11 -67q0 -23 14 -35q8 -7 15 -7q57 0 164 172l50 -29q-57 -81 -78 -108q-84 -108 -194 -108q-64 0 -102 39q-28 28 -40 105q-90 -96 -158 -124q-57 -23 -116 -23 q-111 0 -196 69q-140 113 -140 283zM253 212q0 -93 60 -139q50 -39 123 -39q116 0 210 107q58 65 78 136l96 340q1 5 1 10q0 33 -22 82q-38 82 -150 82q-210 0 -307 -222q-35 -80 -64 -192q-25 -95 -25 -165z" />
<glyph unicode="b" horiz-adv-x="1104" vert-adv-y="2457" d="M110 254q0 49 12 92l275 976h-125l16 57h125q67 0 109 16q27 10 94 59l-207 -735q87 78 171 108q72 25 138 25q97 0 182 -46q66 -35 105 -97q46 -72 46 -165q0 -136 -88 -279q-100 -163 -262 -239q-105 -50 -219 -50q-147 0 -256 74q-116 79 -116 204zM267 191 q0 -75 74 -117q65 -37 153 -37q129 0 203 74q44 44 118 262q75 223 75 303q0 49 -35 77q-49 39 -137 39q-123 0 -212 -63q-117 -81 -150 -197l-77 -273q-12 -43 -12 -68z" />
<glyph unicode="c" horiz-adv-x="898" vert-adv-y="2457" d="M77 311q0 148 92 279q88 127 233 199q122 61 246 61q112 0 179 -50q66 -50 66 -130q0 -62 -49 -99q-27 -19 -57 -19q-34 0 -61 25q-38 35 -38 97q0 43 20 80q5 9 5 14q0 22 -81 22q-212 0 -301 -255q-39 -112 -58 -236q-9 -58 -9 -95q0 -166 168 -166q144 0 250 104 q48 47 127 187l51 -27q-85 -149 -159 -216q-119 -110 -276 -110q-118 0 -217 75q-131 99 -131 260z" />
<glyph unicode="d" horiz-adv-x="1151" vert-adv-y="2457" d="M74 331q0 188 155 337q119 114 278 162q73 22 135 22q138 0 205 -108l163 578h-136l16 57h126q82 0 121 11q39 9 93 64l-356 -1263q-21 -75 -21 -100q0 -21 16 -32q9 -7 19 -7q30 0 67 39q37 41 99 132l46 -25q-43 -71 -83 -120q-81 -99 -186 -99q-73 0 -117 62 q-18 25 -26 77q-58 -61 -100 -87q-80 -51 -169 -51q-93 0 -179 55q-90 57 -133 151q-33 69 -33 145zM245 231q0 -90 55 -142q54 -49 126 -49q152 0 279 200l113 400q-4 37 -22 67q-52 85 -173 85q-98 0 -174 -56q-100 -74 -171 -320q-33 -117 -33 -185z" />
<glyph unicode="e" horiz-adv-x="914" vert-adv-y="2457" d="M82 333q0 127 85 249q97 138 257 217q108 53 206 53q107 0 184 -49t77 -147q0 -82 -62 -139q-121 -110 -364 -110q-91 0 -177 20q-26 -112 -26 -200q0 -119 66 -159q47 -29 116 -29q121 0 219 70q65 47 136 148l46 -28q-51 -85 -100 -130q-132 -120 -299 -120 q-153 0 -264 110q-100 101 -100 244zM303 485q99 -20 178 -20q139 0 200 63q56 57 56 138q0 124 -132 124q-124 0 -201 -97q-70 -87 -101 -208z" />
<glyph unicode="f" horiz-adv-x="613" vert-adv-y="2457" d="M-286 -380q0 60 47 95q28 21 61 21q31 0 56 -19q33 -26 33 -70q0 -24 -15 -52q-11 -20 -11 -26q0 -9 14 -9q46 0 91 67q43 63 87 229q22 82 83 377q66 318 119 516h-169l16 57h169q38 157 137 327q71 124 171 211q102 91 212 91q53 0 91 -28q49 -35 49 -95q0 -59 -45 -92 q-28 -20 -61 -20q-38 0 -66 27q-30 28 -30 68q0 25 20 65q5 10 5 11q0 6 -12 6q-78 0 -154 -163q-59 -127 -135 -408h203l-16 -57h-201l-4 -16q-183 -716 -300 -952q-141 -283 -303 -283q-49 0 -88 24q-54 33 -54 98z" />
<glyph unicode="g" horiz-adv-x="1012" vert-adv-y="2457" d="M-68 -291q0 97 91 184q46 45 103 70q-35 17 -52 32q-35 33 -35 98q0 99 83 160q39 29 91 42q-90 80 -90 201q0 133 117 235q139 121 324 121q181 0 266 -119q38 62 67 85q41 32 96 32q62 0 92 -36q22 -27 22 -63q0 -57 -44 -86q-24 -15 -51 -15q-34 0 -57 23 q-25 25 -25 65q0 8 1 14q1 4 1 6q0 8 -9 8q-29 0 -69 -88q19 -68 19 -116q0 -138 -142 -238q-131 -92 -309 -92q-68 0 -153 26q-136 -25 -136 -89q0 -15 10 -25q20 -19 51 -23q49 -5 137 -5h332q73 0 101 -8q77 -22 110 -98q18 -43 18 -97q0 -159 -124 -285 q-81 -83 -198 -127q-113 -43 -240 -43q-183 0 -297 79q-101 71 -101 172zM55 -259q0 -92 85 -155q88 -64 230 -64q119 0 224 48q119 55 179 158q36 61 36 111q0 53 -38 84q-28 24 -103 24h-473q-59 -33 -85 -61q-55 -62 -55 -145zM280 396q0 -107 148 -107q122 0 172 37 q39 30 83 185q37 131 37 171q0 44 -38 72q-50 37 -126 37q-84 0 -143 -39q-38 -24 -67 -113q-66 -198 -66 -243z" />
<glyph unicode="h" horiz-adv-x="1177" vert-adv-y="2457" d="M66 0l373 1322h-126l16 57h146q40 0 75 11q41 11 107 64l-233 -827q190 224 402 224q83 0 142 -42q64 -46 64 -128q0 -58 -20 -115l-114 -336q-34 -99 -34 -134q0 -39 30 -39q18 0 47 21q39 27 75 76l61 81l44 -30l-56 -75q-112 -150 -236 -150q-54 0 -95 36 q-39 33 -39 100q0 66 29 151l125 371q19 57 19 89q0 53 -82 53q-116 0 -245 -111q-139 -120 -172 -239l-122 -430h-181z" />
<glyph unicode="i" horiz-adv-x="566" vert-adv-y="2457" d="M100 131q0 32 19 98l146 520h-126l17 57h125q82 0 118 10q27 6 81 44l-194 -687q-14 -50 -14 -72q0 -46 38 -46q42 0 104 59q47 44 94 115l45 -28q-138 -221 -303 -221q-73 0 -116 52q-34 39 -34 99zM408 1247q0 65 48 116q35 36 76 36q29 0 55 -21q30 -25 30 -72 q0 -55 -36 -101q-38 -48 -88 -48q-32 0 -58 26q-27 27 -27 64z" />
<glyph unicode="j" horiz-adv-x="503" vert-adv-y="2457" d="M-313 -378q0 58 42 91q27 22 62 22q33 0 58 -20q31 -26 31 -66q0 -34 -15 -63q-5 -11 -5 -17q0 -10 15 -10q73 0 130 202l279 988h-126l16 57h137q62 0 107 9q34 6 79 45l-215 -761q-66 -234 -205 -428q-125 -174 -247 -174q-37 0 -70 14q-73 30 -73 111zM426 1244 q0 54 40 106q33 44 81 44q31 0 61 -23q26 -19 26 -70q0 -56 -34 -97q-40 -47 -91 -47q-34 0 -60 29q-23 26 -23 58z" />
<glyph unicode="k" horiz-adv-x="1059" vert-adv-y="2457" d="M66 0l373 1322h-126l16 57h133q58 0 104 11q36 9 93 64l-255 -904q150 12 210 55q32 24 66 77q9 14 46 76q38 61 91 101q47 34 95 34q70 0 105 -53q16 -24 16 -51q0 -37 -26 -67q-33 -37 -78 -37t-76 42q-13 16 -15 39q-3 23 -13 23q-20 0 -103 -144q-32 -55 -82 -87 q-22 -14 -74 -35q85 -23 127 -58q73 -60 84 -133q3 -22 11 -102q11 -107 19 -133t28 -26q16 0 45 26q50 46 96 193l45 -26q-37 -116 -64 -159q-77 -125 -192 -125q-74 0 -111 59q-34 53 -43 207q-7 150 -55 200q-45 47 -145 47q-8 0 -24 -1l-139 -492h-182z" />
<glyph unicode="l" horiz-adv-x="554" vert-adv-y="2457" d="M86 118q0 42 15 95l313 1109h-126l16 57h116q70 0 118 17q25 8 95 58l-363 -1289q-13 -44 -13 -74q0 -35 35 -35q75 0 205 177l42 -34q-81 -117 -144 -162q-83 -59 -158 -59t-121 52q-30 33 -30 88z" />
<glyph unicode="m" horiz-adv-x="1635" vert-adv-y="2457" d="M89 0l211 749h-126l17 57h139q64 0 102 10q30 8 84 44l-63 -222q89 102 147 142q105 72 199 72q81 0 127 -47q45 -47 45 -108q0 -25 -7 -65q85 102 144 144q103 74 200 74q75 0 122 -37q61 -48 61 -134q0 -52 -18 -107l-132 -388q-22 -75 -22 -88q0 -21 18 -34 q6 -5 14 -5q53 0 177 187l47 -38q-73 -101 -106 -138q-79 -88 -173 -88q-68 0 -109 43q-37 38 -37 96q0 56 18 108l144 425q15 42 15 82q0 48 -49 48q-87 0 -213 -122q-62 -60 -110 -136q-38 -61 -49 -98l-120 -426h-180l200 712q5 16 5 28q0 40 -49 40q-74 0 -200 -110 q-68 -59 -119 -144q-40 -68 -50 -102l-119 -424h-185z" />
<glyph unicode="n" horiz-adv-x="1208" vert-adv-y="2457" d="M89 0l211 749h-126l17 57h153h7q50 0 88 14q16 6 74 40l-65 -232q200 223 400 223q105 0 170 -61q45 -42 45 -121q0 -42 -13 -82l-141 -420q-14 -42 -14 -73q0 -38 30 -38q25 0 66 36q51 46 111 144l48 -28q-62 -99 -107 -143q-88 -87 -175 -87q-57 0 -94 29 q-49 39 -49 115q0 56 23 123l140 416q13 37 13 54q0 65 -76 65q-109 0 -229 -91q-70 -53 -118 -110q-67 -80 -84 -142l-123 -437h-182z" />
<glyph unicode="o" horiz-adv-x="1025" vert-adv-y="2457" d="M82 325q0 123 66 241q99 177 291 251q86 33 185 33q90 0 160 -36q92 -47 140 -136q39 -73 39 -158q0 -132 -71 -257q-103 -183 -286 -251q-88 -33 -175 -33q-124 0 -219 71q-130 97 -130 275zM253 211q0 -71 33 -111q48 -60 154 -60q124 0 188 78q52 64 114 266 q55 178 55 259q0 75 -56 112q-52 35 -145 35q-111 0 -170 -68q-64 -76 -130 -291q-43 -140 -43 -220z" />
<glyph unicode="p" horiz-adv-x="1146" vert-adv-y="2457" d="M-201 -526l16 57h126l343 1218h-126l16 57h118q74 0 114 10q33 6 73 44q-7 -69 -15 -111q75 61 136 80q65 21 125 21q131 0 228 -75q126 -98 126 -268q0 -143 -73 -265q-87 -144 -259 -216q-114 -48 -234 -48q-75 0 -136 25q-58 23 -98 88l-158 -560h126l-16 -57h-432z M320 207q0 -70 42 -113q54 -54 164 -54q121 0 198 81q90 95 138 254q34 113 34 235q0 181 -183 181q-81 0 -143 -37q-52 -32 -95 -84q-50 -61 -67 -122l-81 -286q-7 -26 -7 -55z" />
<glyph unicode="q" horiz-adv-x="1073" vert-adv-y="2457" d="M80 331q0 121 78 240q93 142 259 221q122 58 234 58q144 0 198 -122l22 78h180l-359 -1275h110l-17 -57h-415l16 57h126l159 564q-128 -116 -255 -116q-110 0 -202 75q-86 69 -119 174q-15 50 -15 103zM247 205q0 -70 41 -111q54 -55 139 -55q87 0 175 68q41 31 99 94 l104 371q12 41 12 58q0 47 -32 96q-42 65 -148 65q-98 0 -167 -52q-85 -62 -155 -240q-68 -172 -68 -294z" />
<glyph unicode="r" horiz-adv-x="768" vert-adv-y="2457" d="M89 0l211 749h-126l16 57h140q69 0 102 7q30 6 83 47l-53 -186q62 82 133 125q64 39 118 39q56 0 89 -44q19 -26 19 -57q0 -29 -16 -56q-35 -60 -102 -60q-36 0 -60 25q-23 23 -23 55q0 18 8 37q3 7 3 11t-5 4q-11 0 -38 -19q-56 -40 -111 -120q-55 -83 -74 -149 l-131 -465h-183z" />
<glyph unicode="s" horiz-adv-x="777" vert-adv-y="2457" d="M18 187q0 63 40 100q33 30 78 30q54 0 79 -48q13 -24 13 -50q0 -65 -82 -99q-12 -5 -12 -14q0 -12 15 -23q57 -43 159 -43q109 0 159 61q30 37 30 86q0 68 -67 126q-34 29 -122 80q-116 68 -116 186q0 112 103 194q100 80 226 80q96 0 171 -51q65 -44 65 -112 q0 -51 -37 -84q-32 -28 -71 -28q-50 0 -79 38q-18 24 -18 54q0 52 44 78q17 11 17 17q0 25 -85 25q-74 0 -131 -26q-69 -32 -69 -96q0 -46 38 -81q12 -13 70 -43q44 -22 101 -58q50 -31 85 -80q47 -64 47 -140q0 -110 -94 -194q-105 -93 -270 -93t-241 91q-46 56 -46 117z " />
<glyph unicode="t" horiz-adv-x="652" vert-adv-y="2457" d="M101 123q0 42 24 126l140 500h-129l16 57h130l74 263q27 -3 45 -3q60 0 147 68l-92 -328h208l-16 -57h-208l-166 -588q-12 -43 -12 -70q0 -43 41 -43q43 0 115 65q71 65 130 163l42 -27q-52 -92 -116 -155q-113 -114 -224 -114q-59 0 -102 36q-47 38 -47 107z" />
<glyph unicode="u" horiz-adv-x="1159" vert-adv-y="2457" d="M105 141q0 38 25 127l136 481h-126l16 57h139q50 0 104 13q31 7 79 41l-167 -592q-39 -141 -39 -163q0 -62 75 -62q95 0 197 77q79 58 181 201q24 33 30 48q2 5 12 40l112 397h180l-177 -629q-16 -56 -16 -74q0 -38 31 -38q49 0 111 82q28 37 59 84l41 -32 q-36 -62 -65 -100q-87 -119 -201 -119q-90 0 -126 65q-19 33 -19 78q0 31 13 85q-82 -100 -150 -149q-112 -80 -244 -80q-130 0 -183 71q-28 38 -28 91z" />
<glyph unicode="v" horiz-adv-x="904" vert-adv-y="2457" d="M99 129q0 44 32 144l134 476h-125l16 57h147q42 0 73 6q35 6 105 49l-181 -642q-24 -79 -24 -106q0 -57 68 -57q69 0 156 66q117 91 204 245q91 164 91 258q0 31 -21 52q-6 7 -38 24q-65 34 -65 95q0 56 41 97q29 28 61 28q68 0 104 -70q17 -34 17 -86q0 -154 -94 -343 q-82 -165 -211 -294q-148 -149 -304 -149q-72 0 -126 36q-60 41 -60 114z" />
<glyph unicode="w" horiz-adv-x="1451" vert-adv-y="2457" d="M104 126q0 50 24 137l137 486h-126l17 57h79q82 0 135 7q51 8 113 48l-175 -622q-34 -120 -34 -139q0 -54 63 -54q77 0 168 74q46 38 111 119q77 96 84 123l126 444h185l-175 -619q-14 -50 -14 -81q0 -53 69 -53q122 0 266 176q77 92 130 211q53 118 53 185q0 31 -21 52 q-6 6 -38 23q-64 34 -64 97q0 72 58 109q25 15 50 15q33 0 61 -24q54 -45 54 -133q0 -156 -95 -345q-83 -166 -210 -295q-81 -81 -175 -121q-68 -29 -129 -29q-79 0 -125 39q-55 47 -55 129q0 20 7 60q-92 -114 -160 -159q-101 -65 -201 -65q-71 0 -122 30q-71 43 -71 118z " />
<glyph unicode="x" horiz-adv-x="1037" vert-adv-y="2457" d="M-32 124q0 46 28 84q40 52 99 52q46 0 65 -43q9 -20 9 -44q0 -64 -49 -95q-18 -12 -18 -19q0 -11 27 -11q76 0 151 78q102 107 158 301q39 138 39 222q0 61 -37 97q-26 26 -60 26q-64 0 -143 -68q-41 -36 -121 -132l-45 31l26 32q73 91 109 121q114 95 236 95 q72 0 129 -34q49 -29 70 -78q11 -25 20 -66q105 177 248 177q77 0 124 -45q40 -38 40 -85q0 -33 -22 -65q-38 -55 -97 -55q-33 0 -55 19q-24 21 -24 61q0 43 44 88q1 1 1 3q0 12 -32 12q-127 0 -217 -212q-25 -61 -64 -218q-25 -99 -25 -141q0 -76 38 -115q21 -21 54 -21 q80 0 197 103q57 50 91 95l39 -28q-86 -115 -190 -184q-126 -83 -234 -83q-62 0 -108 39q-45 37 -58 93q-8 34 -12 78q-71 -106 -119 -146q-74 -63 -158 -63q-89 0 -131 66q-23 37 -23 78z" />
<glyph unicode="y" horiz-adv-x="1010" vert-adv-y="2457" d="M-190 -336q0 47 35 81q35 33 76 33q38 0 65 -29q24 -25 24 -60q0 -19 -10 -44q-9 -22 -16 -30q-6 -7 -6 -10q0 -11 23 -11q114 0 233 135q47 55 155 226l-99 663q-17 111 -53 111q-24 0 -58 -41q-47 -56 -92 -153l-53 22q42 101 106 177q98 116 203 116q93 0 115 -130 l86 -510l235 409q56 98 102 152q66 79 140 79q50 0 80 -41q20 -28 20 -66q0 -57 -40 -91q-29 -25 -64 -25q-33 0 -53 20q-21 21 -21 52q0 6 5 35v5q0 10 -7 10q-14 0 -39 -36q-62 -95 -318 -552q-150 -269 -271 -425q-156 -201 -343 -201q-96 0 -137 57q-23 32 -23 72z" />
<glyph unicode="z" horiz-adv-x="928" vert-adv-y="2457" d="M1 41q0 17 30 46l22 22l619 521l12 10q-144 -30 -274 -30q-101 0 -204 16l-37 -84h-64q65 136 116 270l218 -31q194 -28 295 -28q115 0 115 27v3q-1 10 -1 12q0 9 6 19q13 19 31 19q9 0 18 -9q11 -11 11 -31q0 -22 -18 -39q-3 -3 -660 -563q71 10 119 10q89 0 191 -26 q22 -5 138 -43q59 -12 64 -12q18 0 26 11l11 15q0 7 -24 23q-51 34 -51 84q0 38 35 64q23 18 46 18q32 0 52 -25q28 -35 28 -76q0 -44 -21 -89q-36 -77 -147 -120q-84 -32 -165 -32q-63 0 -205 40q-161 45 -197 45q-23 0 -40 -6q-17 -7 -16 -11l4 -30q-15 -34 -41 -34 q-21 0 -33 17q-9 14 -9 27z" />
<glyph unicode="{" horiz-adv-x="535" vert-adv-y="2457" d="M-19 -384q0 52 36 179l126 450q17 61 17 94q0 52 -29 76q-14 13 -53 28l10 34q61 19 101 55q47 44 76 146l134 479q45 158 122 217q78 60 190 60q8 0 24 -1l-16 -57q-86 -6 -141 -37q-69 -46 -102 -156l-143 -508q-32 -106 -66 -143q-40 -50 -102 -73q62 -34 62 -115 q0 -46 -19 -112l-140 -499q-17 -61 -17 -102q0 -58 51 -83q27 -13 98 -17l-15 -57h-5q-199 0 -199 142z" />
<glyph unicode="|" horiz-adv-x="1024" vert-adv-y="2457" d="M560 -341v1706h68v-1706h-68z" />
<glyph unicode="}" horiz-adv-x="535" vert-adv-y="2457" d="M-163 -526l16 57q86 6 141 37q70 46 102 157l143 507q31 104 66 143q40 50 103 74q-62 33 -62 113q0 50 18 113l140 499q17 61 17 102q0 58 -51 83q-28 13 -98 17l16 57q12 1 15 1q188 0 188 -143q0 -53 -35 -179l-127 -450q-17 -61 -17 -96q0 -59 44 -85q11 -6 38 -17 l-10 -34q-60 -18 -101 -55q-46 -43 -76 -146l-134 -479q-44 -157 -121 -216q-78 -60 -195 -60h-20z" />
<glyph unicode="~" horiz-adv-x="1365" vert-adv-y="2457" d="M276 1254q39 70 76 113q77 89 185 89q80 0 240 -82q107 -54 147 -65q36 -10 67 -10q77 0 133 55q39 38 79 106l49 -30q-110 -200 -264 -200q-49 0 -123 27q-27 10 -161 77q-107 53 -174 53q-110 0 -206 -163z" />
<glyph unicode="&#xa0;" horiz-adv-x="512" vert-adv-y="2457" />
<glyph unicode="&#xa1;" horiz-adv-x="637" vert-adv-y="2457" d="M-52 -288q86 60 212 347q62 147 95 254q29 92 59 190h43q-24 -86 -51 -195q-83 -298 -83 -502q0 -37 4 -96q-57 -29 -93 -66q-47 -49 -73 -106q-15 -33 -34 -84h-26q18 77 18 115q0 43 -14 82q-12 31 -57 61zM275 715q0 60 40 106q39 46 95 46q45 0 79 -34q29 -29 29 -76 q0 -64 -43 -112q-40 -45 -95 -45q-40 0 -69 26q-36 33 -36 89z" />
<glyph unicode="&#xa2;" vert-adv-y="2457" d="M220 587q0 164 115 310q158 200 410 231l46 159h62l-43 -158q104 -6 163 -44q78 -49 78 -134q0 -49 -31 -87q-28 -36 -74 -36q-53 0 -80 53q-18 34 -18 73q0 40 22 78q7 10 7 14q0 3 -7 7q-27 15 -66 15h-11l-211 -750q128 3 228 90q73 65 141 201l52 -29 q-82 -164 -174 -234q-113 -85 -264 -92l-45 -175h-67l49 182q-92 19 -155 70q-127 102 -127 256zM407 474q0 -74 46 -117q26 -25 69 -33l206 741q-75 -11 -119 -45q-105 -84 -161 -299q-41 -158 -41 -247z" />
<glyph unicode="&#xa3;" vert-adv-y="2457" d="M-41 137q0 68 46 128q73 96 217 96q44 0 79 -11q116 -35 129 -37q21 78 21 116q0 44 -22 158q-13 70 -23 118h-239l17 59h210q-10 66 -10 118q0 175 91 296q162 218 429 218q153 0 237 -88q60 -62 60 -151q0 -69 -41 -118q-36 -43 -87 -43q-40 0 -67 27q-25 25 -25 64 q0 77 97 100q32 8 32 33q0 23 -17 43q-60 73 -169 73q-190 0 -275 -226q-42 -112 -42 -247q0 -37 3 -99h293l-17 -59h-272q2 -34 2 -50q0 -203 -111 -380q149 -66 216 -93q80 -32 146 -32q74 0 122 51q30 32 61 104h58q-39 -121 -106 -202q-102 -125 -254 -125 q-130 0 -246 92q-38 29 -87 76q-64 -72 -114 -113q-74 -58 -162 -58q-64 0 -113 35q-67 48 -67 127zM18 147q0 -35 20 -61q40 -52 111 -52q70 0 135 60q33 30 61 71q19 28 18 29q-4 3 -8 8q-87 83 -182 83q-73 0 -120 -52q-35 -39 -35 -86z" />
<glyph unicode="&#xa4;" horiz-adv-x="1420" vert-adv-y="2457" d="M262 1197l53 53l183 -182q137 115 301 115q168 0 301 -114l183 181l53 -53l-182 -182q108 -135 108 -296q0 -160 -109 -294l186 -186l-53 -52l-186 185q-133 -113 -298 -113q-161 0 -297 109l-182 -182l-52 54l181 181q-114 137 -114 300q0 162 107 293zM417 721 q0 -159 113 -271t271 -112t271 112q111 111 111 268q0 163 -112 273q-115 113 -276 113q-154 0 -267 -113q-111 -112 -111 -270z" />
<glyph unicode="&#xa5;" vert-adv-y="2457" d="M92 438l16 58h350l28 98l-17 178h-283l17 58h260l-42 478h-134l16 57h491l-16 -57h-154l48 -659l417 581q27 38 27 62q0 16 -20 16h-109l16 57h297l-16 -57h-52q-16 -1 -44 -39l-317 -439h244l-16 -58h-270l-152 -209l-19 -67h363l-16 -58h-363l-107 -380h161l-16 -58 h-507l17 58h145l107 380h-350z" />
<glyph unicode="&#xa6;" horiz-adv-x="1024" vert-adv-y="2457" d="M560 314h68v-655h-68v655zM560 703v662h68v-662h-68z" />
<glyph unicode="&#xa7;" horiz-adv-x="1147" vert-adv-y="2457" d="M-3 -240q0 75 45 126q44 49 103 49q46 0 77 -34q28 -31 28 -73q0 -63 -53 -94q-28 -16 -65 -16q-16 0 -30 4q-9 2 -14 2q-10 0 -10 -12q0 -29 37 -66q47 -47 135 -71q61 -16 125 -16q141 0 244 72q105 74 105 191q0 135 -212 273l-259 170q-56 37 -84 104q-21 49 -21 103 q0 133 116 262q66 74 147 111q-52 67 -52 147q0 144 108 260q132 140 348 140q128 0 210 -60q96 -69 96 -166q0 -66 -54 -107q-34 -26 -74 -26q-45 0 -77 31q-31 30 -31 71q0 34 20 59q32 41 80 49q27 4 27 11q0 14 -35 36q-71 45 -174 45q-136 0 -220 -59q-87 -62 -87 -155 q0 -61 54 -120q36 -41 65 -59l309 -187q82 -50 123 -123q29 -53 29 -109q0 -120 -89 -250q-56 -83 -121 -125q-16 -11 -50 -29q41 -67 41 -163q0 -148 -85 -265q-139 -190 -402 -190q-221 0 -331 135q-42 52 -42 124zM274 595q0 -88 98 -150l348 -222q20 -13 66 -60 q51 26 82 55q86 79 86 170q0 45 -43 99q-38 49 -85 78l-352 219q-7 4 -23 19q-41 -16 -77 -43q-100 -78 -100 -165z" />
<glyph unicode="&#xa8;" horiz-adv-x="1025" vert-adv-y="2457" d="M406 1142q0 46 35 78q30 27 72 27q45 0 77 -35q27 -30 27 -70q0 -47 -35 -79q-30 -27 -71 -27q-46 0 -78 35q-27 30 -27 71zM748 1141q0 46 36 78q30 28 73 28q45 0 77 -36q28 -30 28 -71q0 -47 -36 -79q-30 -28 -71 -28q-47 0 -79 36q-28 30 -28 72z" />
<glyph unicode="&#xa9;" horiz-adv-x="1502" vert-adv-y="2457" d="M124 682q0 200 104 372q101 168 283 261q151 78 331 78q190 0 362 -105t263 -283q78 -153 78 -324q0 -198 -104 -370q-104 -170 -283 -261q-152 -78 -322 -78q-200 0 -372 105q-170 104 -262 283q-78 153 -78 322zM175 683q0 -274 195 -469q193 -194 466 -194 q186 0 344 98q158 97 242 264q72 141 72 298q0 189 -98 349q-95 157 -263 244q-140 72 -307 72q-178 0 -337 -98t-243 -264q-71 -141 -71 -300zM397 605q0 228 194 388q146 120 304 120q108 0 206 -64q25 -17 35 -17q5 0 8 5q1 3 3 11q2 9 10 24h58l-61 -302h-68l14 50 q5 16 5 39q0 120 -95 173q-55 31 -122 31q-140 0 -237 -201q-85 -177 -85 -333q0 -95 46 -152q54 -68 159 -68q116 0 205 79q45 40 100 125l46 -26q-138 -231 -368 -231q-163 0 -267 113q-90 97 -90 236z" />
<glyph unicode="&#xaa;" horiz-adv-x="710" vert-adv-y="2457" d="M181 1035q0 151 144 262q118 92 239 92q36 0 65 -19q19 -13 45 -50l11 39h133l-122 -434q-7 -24 -7 -42q0 -24 16 -24q29 0 86 85l39 -26q-38 -54 -61 -75q-49 -44 -107 -44q-80 0 -98 90q-88 -91 -168 -91q-61 0 -119 46q-96 75 -96 191zM307 958q0 -68 48 -96 q24 -15 50 -15q67 0 128 67q39 42 52 88l63 226q1 2 1 4q0 21 -15 54q-24 52 -85 52q-122 0 -183 -143q-22 -51 -42 -127q-17 -65 -17 -110z" />
<glyph unicode="&#xab;" horiz-adv-x="838" vert-adv-y="2457" d="M116 417l309 357l58 -44l-269 -310l167 -311l-73 -39zM378 417l309 357l58 -44l-269 -310l167 -311l-73 -39z" />
<glyph unicode="&#xac;" horiz-adv-x="1024" vert-adv-y="2457" d="M150 484v62h887v-546h-68v484h-819z" />
<glyph unicode="&#xad;" horiz-adv-x="422" vert-adv-y="2457" d="M-3 375l30 107h422l-30 -107h-422z" />
<glyph unicode="&#xae;" horiz-adv-x="1502" vert-adv-y="2457" d="M124 682q0 200 104 372q101 168 283 261q151 78 331 78q190 0 362 -105t263 -283q78 -153 78 -324q0 -198 -104 -370q-104 -170 -283 -261q-152 -78 -322 -78q-200 0 -372 105q-170 104 -262 283q-78 153 -78 322zM175 683q0 -274 195 -469q193 -194 466 -194 q186 0 344 98q158 97 242 264q72 141 72 298q0 189 -98 349q-95 157 -263 244q-140 72 -307 72q-178 0 -337 -98t-243 -264q-71 -141 -71 -300zM403 273l13 48h99l205 723h-110l13 48h332q111 0 159 -15q79 -26 111 -86q18 -35 18 -72q0 -72 -55 -131q-44 -47 -102 -70 q-29 -11 -69 -23q66 -40 83 -75q14 -28 14 -57q0 -40 -16 -103q-20 -80 -20 -118q0 -22 17 -22q18 0 65 61l45 -27q-35 -47 -63 -64q-39 -25 -84 -25q-66 0 -105 52q-26 35 -26 75q0 24 24 140q13 66 13 86q0 58 -66 58h-122l-100 -355h110l-13 -48h-370zM790 724h94 q102 0 154 76q43 65 43 142q0 56 -30 82q-23 20 -87 20h-84z" />
<glyph unicode="&#xaf;" horiz-adv-x="1024" vert-adv-y="2457" d="M0 1589v61h1024v-61h-1024z" />
<glyph unicode="&#xb0;" horiz-adv-x="823" vert-adv-y="2457" d="M317 1091q0 137 101 222q88 74 203 74q114 0 200 -87q84 -85 84 -200q0 -124 -86 -212q-87 -88 -209 -88q-130 0 -218 95q-75 81 -75 196zM406 1098q0 -77 52 -137q62 -72 158 -72q80 0 139 57q61 59 61 142q0 88 -61 149q-63 62 -152 62q-74 0 -130 -51 q-67 -62 -67 -150z" />
<glyph unicode="&#xb1;" vert-adv-y="2457" d="M142 658v61h417v443h60v-443h419v-61h-419v-444h-60v444h-417zM143 57v61h896v-61h-896z" />
<glyph unicode="&#xb2;" horiz-adv-x="722" vert-adv-y="2457" d="M129 546q31 154 293 296q133 75 182 140q71 92 71 196q0 59 -31 95q-50 57 -145 57q-89 0 -144 -44q-34 -27 -34 -57q0 -26 32 -50q57 -43 57 -76q0 -25 -18 -44q-20 -22 -50 -22q-37 0 -59 36q-25 40 -25 94q0 87 62 144q73 68 212 68q143 0 234 -74q64 -53 64 -141 q0 -110 -81 -198q-44 -48 -149 -100q-49 -23 -106 -47q-167 -72 -241 -147h404q12 0 16 2.5t14 18.5l34 48l39 -20q-51 -85 -94 -175h-537z" />
<glyph unicode="&#xb3;" horiz-adv-x="722" vert-adv-y="2457" d="M174 689q0 45 30 79q34 39 81 39q32 0 54 -19t22 -45q0 -33 -27 -60q-21 -20 -53 -20q-13 0 -28 5q-4 1 -7 1q-8 0 -8 -7q0 -14 27 -37q50 -44 144 -44q101 0 144 75q49 85 49 193q0 74 -54 100q-58 28 -160 28h-74l15 51h123q110 0 158 41q60 50 60 152q0 109 -132 109 q-84 0 -128 -34q-18 -14 -18 -23q0 -6 20 -8q19 -2 34 -17q16 -17 16 -45q0 -27 -18 -47q-22 -23 -56 -23q-32 0 -53 21q-22 23 -22 58q0 47 31 86q65 81 212 81q96 0 167 -37q95 -50 95 -139q0 -86 -82 -146q-46 -34 -126 -58q77 -29 107 -64q41 -49 41 -121 q0 -151 -158 -234q-93 -48 -199 -48q-109 0 -176 56q-51 42 -51 101z" />
<glyph unicode="&#xb4;" horiz-adv-x="1024" vert-adv-y="2457" d="M543 945l195 290q40 60 59 80q39 41 90 41q36 0 59 -21q24 -21 24 -50q0 -44 -68 -97l-310 -243h-49z" />
<glyph unicode="&#xb5;" horiz-adv-x="1159" vert-adv-y="2457" d="M-29 -296l294 1045h-125l16 57h139q50 0 103 13q32 7 80 41l-168 -592q-38 -141 -38 -163q0 -62 74 -62q96 0 198 77q78 58 180 201q24 33 30 48q2 5 12 40l112 397h181l-177 -629q-16 -55 -16 -74q0 -38 31 -38q49 0 111 82q28 37 59 84l40 -32q-36 -61 -64 -100 q-88 -119 -201 -119q-90 0 -126 65q-19 33 -19 78q0 31 13 85q-85 -104 -150 -149q-56 -39 -122 -61q-60 -21 -95 -21q-71 0 -192 55v-328h-180z" />
<glyph unicode="&#xb6;" horiz-adv-x="1147" vert-adv-y="2457" d="M234 881q0 132 86 258q155 226 458 226h495l-16 -57h-96l-428 -1518h-79l428 1518h-232l-428 -1518h-80l234 829h-35q-137 0 -212 55q-95 71 -95 207z" />
<glyph unicode="&#xb7;" horiz-adv-x="541" vert-adv-y="2457" d="M159 403q0 61 43 110q40 45 96 45q38 0 67 -26q36 -33 36 -89q0 -60 -39 -106t-94 -46q-46 0 -80 34q-29 30 -29 78z" />
<glyph unicode="&#xb8;" horiz-adv-x="1024" vert-adv-y="2457" d="M164 -368l33 49q80 -42 146 -42q49 0 78 24q26 21 26 56q0 66 -83 66q-37 0 -74 -21l-26 32l177 204h74l-134 -152q39 7 62 7q66 0 109 -33q47 -35 47 -92q0 -70 -70 -117q-60 -40 -153 -40q-103 0 -212 59z" />
<glyph unicode="&#xb9;" horiz-adv-x="722" vert-adv-y="2457" d="M270 546l14 48h122l182 644q-39 -25 -101 -54q-83 -38 -141 -58l-17 39q124 51 186 83q79 42 223 140h35l-223 -794h118l-14 -48h-384z" />
<glyph unicode="&#xba;" horiz-adv-x="710" vert-adv-y="2457" d="M228 1033q0 82 45 162q67 121 199 171q59 22 125 22q62 0 110 -25q63 -31 95 -91q27 -50 27 -108q0 -89 -48 -174q-70 -124 -195 -170q-60 -22 -120 -22q-85 0 -149 48q-89 66 -89 187zM354 959q0 -110 121 -110q80 0 121 50q33 40 74 174q36 115 36 169q0 95 -131 95 q-71 0 -108 -43q-41 -48 -85 -190q-28 -92 -28 -145z" />
<glyph unicode="&#xbb;" horiz-adv-x="838" vert-adv-y="2457" d="M113 114l269 310l-167 311l73 39l192 -347l-310 -357zM375 114l269 310l-167 311l73 39l192 -347l-309 -357z" />
<glyph unicode="&#xbc;" horiz-adv-x="1780" vert-adv-y="2457" d="M270 546l14 48h122l182 644q-39 -25 -101 -54q-83 -38 -141 -58l-17 39q124 51 186 83q79 42 223 140h35l-223 -794h118l-14 -48h-384zM529 0l809 1365h81l-808 -1365h-82zM1015 233q245 231 365 351q94 96 246 266l36 -27q-225 -249 -487 -493h264l71 251l166 93 l-97 -344h142l-28 -97h-141l-53 -185h104l-14 -48h-348l14 48h105l52 185h-397z" />
<glyph unicode="&#xbd;" horiz-adv-x="1780" vert-adv-y="2457" d="M270 546l14 48h122l182 644q-39 -25 -101 -54q-83 -38 -141 -58l-17 39q124 51 186 83q79 42 223 140h35l-223 -794h118l-14 -48h-384zM529 0l809 1365h81l-808 -1365h-82zM1033 0q31 154 293 296q132 75 182 140q71 92 71 196q0 60 -31 95q-50 57 -145 57 q-89 0 -144 -44q-34 -27 -34 -57q0 -26 32 -50q57 -43 57 -76q0 -25 -18 -44q-20 -22 -50 -22q-37 0 -59 36q-25 40 -25 94q0 87 62 144q73 68 212 68q143 0 234 -74q64 -53 64 -141q0 -110 -81 -198q-44 -49 -149 -100q-49 -23 -106 -47q-168 -72 -242 -147h405q13 0 18 5 q3 2 12 16l34 48l38 -20q-50 -85 -93 -175h-537z" />
<glyph unicode="&#xbe;" horiz-adv-x="1780" vert-adv-y="2457" d="M174 689q0 45 30 79q34 39 81 39q32 0 54 -19t22 -45q0 -33 -27 -60q-21 -20 -53 -20q-13 0 -28 5q-4 1 -7 1q-8 0 -8 -7q0 -14 27 -37q50 -44 144 -44q101 0 144 75q49 85 49 193q0 74 -54 100q-58 28 -160 28h-74l15 51h123q110 0 158 41q60 50 60 152q0 109 -132 109 q-84 0 -128 -34q-18 -14 -18 -23q0 -6 20 -8q19 -2 34 -17q16 -17 16 -45q0 -27 -18 -47q-22 -23 -56 -23q-32 0 -53 21q-22 23 -22 58q0 47 31 86q65 81 212 81q96 0 167 -37q95 -50 95 -139q0 -86 -82 -146q-46 -34 -126 -58q77 -29 107 -64q41 -49 41 -121 q0 -151 -158 -234q-93 -48 -199 -48q-109 0 -176 56q-51 42 -51 101zM529 0l809 1365h81l-808 -1365h-82zM1015 233q245 231 365 351q94 96 247 266l35 -27q-225 -249 -486 -493h263l71 251l166 93l-97 -344h142l-28 -97h-141l-52 -185h104l-14 -48h-349l14 48h105l52 185 h-397z" />
<glyph unicode="&#xbf;" horiz-adv-x="850" vert-adv-y="2457" d="M-97 -247q0 136 80 219q73 77 185 131q64 31 164 76q77 34 118 60q33 21 44 50l70 190h51l-76 -231q-19 -50 -66 -163q-30 -71 -86 -101q-32 -17 -161 -65q-244 -89 -244 -230q0 -91 92 -144q65 -37 160 -37q103 0 155 44q32 28 32 60q0 16 -9 22q-3 2 -38 10 q-23 6 -39 29q-15 22 -15 49q0 59 52 91q23 14 50 14q40 0 68 -28q34 -34 34 -94q0 -130 -125 -205q-78 -47 -178 -47q-164 0 -254 109q-64 78 -64 191zM525 714q0 60 40 107q39 46 95 46q45 0 79 -34q29 -30 29 -75q0 -64 -43 -113q-40 -45 -95 -45q-40 0 -69 26 q-36 32 -36 88z" />
<glyph unicode="&#xc0;" horiz-adv-x="1209" vert-adv-y="2457" d="M-102 0l16 57h54q34 0 48 9q29 15 60 63l875 1292h77l-14 -1364h130l-16 -57h-500l16 57h150l10 424h-414l-221 -319q-14 -20 -39 -71q-8 -16 -8 -21q0 -13 61 -13h87l-16 -57h-356zM423 539h380l10 585zM775 1749q0 37 30 59q22 16 54 16q49 0 84 -37q34 -34 68 -97 l117 -208h-61l-211 154q-81 60 -81 113z" />
<glyph unicode="&#xc1;" horiz-adv-x="1209" vert-adv-y="2457" d="M-102 0l16 57h54q34 0 48 9q29 15 60 63l875 1292h77l-14 -1364h130l-16 -57h-500l16 57h150l10 424h-414l-221 -319q-14 -20 -39 -71q-8 -16 -8 -21q0 -13 61 -13h87l-16 -57h-356zM423 539h380l10 585zM868 1481l158 233q80 117 146 117q39 0 62 -25q19 -20 19 -50 q0 -48 -93 -111l-243 -164h-49z" />
<glyph unicode="&#xc2;" horiz-adv-x="1209" vert-adv-y="2457" d="M-102 0l16 57h54q34 0 48 9q29 15 60 63l875 1292h77l-14 -1364h130l-16 -57h-500l16 57h150l10 424h-414l-221 -319q-14 -20 -39 -71q-8 -16 -8 -21q0 -13 61 -13h87l-16 -57h-356zM423 539h380l10 585zM696 1481l307 348h145l147 -348h-67l-179 193l-287 -193h-66z" />
<glyph unicode="&#xc3;" horiz-adv-x="1209" vert-adv-y="2457" d="M-102 0l16 57h54q34 0 48 9q29 15 60 63l875 1292h77l-14 -1364h130l-16 -57h-500l16 57h150l10 424h-414l-221 -319q-14 -20 -39 -71q-8 -16 -8 -21q0 -13 61 -13h87l-16 -57h-356zM423 539h380l10 585zM704 1538q76 236 234 236q55 0 162 -48q92 -41 130 -41 q65 0 102 93h56q-24 -91 -62 -147q-67 -96 -160 -96q-63 0 -161 50q-85 44 -130 44q-44 0 -70 -24q-20 -19 -46 -67h-55z" />
<glyph unicode="&#xc4;" horiz-adv-x="1209" vert-adv-y="2457" d="M-102 0l16 57h54q34 0 48 9q29 15 60 63l875 1292h77l-14 -1364h130l-16 -57h-500l16 57h150l10 424h-414l-221 -319q-14 -20 -39 -71q-8 -16 -8 -21q0 -13 61 -13h87l-16 -57h-356zM423 539h380l10 585zM727 1655q0 48 37 82q32 29 77 29q48 0 82 -37q29 -32 29 -75 q0 -50 -37 -84q-33 -29 -75 -29q-50 0 -84 37q-29 33 -29 77zM1109 1659q0 48 38 83q31 29 77 29q48 0 82 -37q29 -33 29 -76q0 -50 -37 -84q-33 -29 -76 -29q-50 0 -84 38q-29 32 -29 76z" />
<glyph unicode="&#xc5;" horiz-adv-x="1209" vert-adv-y="2457" d="M-102 0l16 57h54q34 0 48 9q29 15 60 63l875 1292h77l-14 -1364h130l-16 -57h-500l16 57h150l10 424h-414l-221 -319q-14 -20 -39 -71q-8 -16 -8 -21q0 -13 61 -13h87l-16 -57h-356zM423 539h380l10 585zM833 1676q0 85 65 145q56 51 135 51q84 0 143 -66q51 -56 51 -131 q0 -88 -65 -147q-57 -51 -132 -51q-87 0 -146 66q-51 56 -51 133zM906 1673q0 -55 40 -91q36 -32 82 -32q54 0 91 41q31 35 31 83q0 53 -40 90q-35 32 -84 32q-52 0 -89 -41q-31 -35 -31 -82z" />
<glyph unicode="&#xc6;" horiz-adv-x="1615" vert-adv-y="2457" d="M-164 0l16 57h58q19 0 28 6t49 49l930 1196h-147l17 57h922l-61 -393h-60l6 68q2 23 2 39q0 84 -33 148q-42 81 -155 81h-251l-154 -543h113q58 0 87 25q20 18 40 88l27 94h55l-120 -533h-57q32 157 32 203q0 63 -61 63h-132l-183 -648h263q128 1 229 73q66 48 101 107 q26 42 47 113l25 89h63l-98 -439h-1018l17 57h159l120 424h-363l-294 -379q-20 -25 -20 -32q0 -13 25 -13h125l-17 -57h-332zM396 538h332l195 691z" />
<glyph unicode="&#xc7;" horiz-adv-x="1341" vert-adv-y="2457" d="M160 543q0 281 180 515q137 178 331 273q141 69 278 69q133 0 246 -60q31 -17 79 -50q40 -27 64 -27q23 0 33 17q4 6 9 21l12 30h53l-102 -489h-64l21 73q9 33 9 76q0 201 -162 296q-89 52 -202 52q-159 0 -271 -130q-141 -164 -227 -441q-62 -199 -62 -363 q0 -162 77 -259q92 -116 266 -116q191 0 343 138q78 71 163 208l47 -29q-78 -135 -156 -208q-180 -169 -408 -169q-11 0 -34 1l-112 -127q40 6 64 6q69 0 113 -34q48 -37 48 -94q0 -72 -72 -120q-61 -41 -157 -41q-107 0 -219 61l34 49q83 -42 149 -42q52 0 82 24 q27 22 27 58q0 67 -86 67q-38 0 -76 -21l-26 34l162 187q-98 18 -165 55q-158 84 -233 246q-56 122 -56 264z" />
<glyph unicode="&#xc8;" horiz-adv-x="1293" vert-adv-y="2457" d="M-3 0l16 57h160l353 1251h-178l16 57h1016l-53 -393h-58q7 75 7 109q0 80 -30 138q-45 89 -157 89h-347l-154 -543h83q109 1 149 24q42 23 55 73l31 110h57l-119 -533h-56l22 119q5 30 5 47q0 49 -45 79q-32 22 -81 22h-117l-183 -649h291q147 1 210 27q107 45 168 126 q40 53 70 159l20 70h62l-98 -439h-1115zM679 1749q0 37 30 59q22 16 54 16q49 0 84 -37q34 -34 68 -97l117 -208h-61l-211 154q-81 60 -81 113z" />
<glyph unicode="&#xc9;" horiz-adv-x="1293" vert-adv-y="2457" d="M-3 0l16 57h160l353 1251h-178l16 57h1016l-53 -393h-58q7 75 7 109q0 80 -30 138q-45 89 -157 89h-347l-154 -543h83q109 1 149 24q42 23 55 73l31 110h57l-119 -533h-56l22 119q5 30 5 47q0 49 -45 79q-32 22 -81 22h-117l-183 -649h291q147 1 210 27q107 45 168 126 q40 53 70 159l20 70h62l-98 -439h-1115zM800 1481l158 233q80 117 146 117q39 0 62 -25q19 -20 19 -50q0 -48 -93 -111l-243 -164h-49z" />
<glyph unicode="&#xca;" horiz-adv-x="1293" vert-adv-y="2457" d="M-3 0l16 57h160l353 1251h-178l16 57h1016l-53 -393h-58q7 75 7 109q0 80 -30 138q-45 89 -157 89h-347l-154 -543h83q109 1 149 24q42 23 55 73l31 110h57l-119 -533h-56l22 119q5 30 5 47q0 49 -45 79q-32 22 -81 22h-117l-183 -649h291q147 1 210 27q107 45 168 126 q40 53 70 159l20 70h62l-98 -439h-1115zM655 1481l307 348h145l147 -348h-67l-179 193l-287 -193h-66z" />
<glyph unicode="&#xcb;" horiz-adv-x="1293" vert-adv-y="2457" d="M-3 0l16 57h160l353 1251h-178l16 57h1016l-53 -393h-58q7 75 7 109q0 80 -30 138q-45 89 -157 89h-347l-154 -543h83q109 1 149 24q42 23 55 73l31 110h57l-119 -533h-56l22 119q5 30 5 47q0 49 -45 79q-32 22 -81 22h-117l-183 -649h291q147 1 210 27q107 45 168 126 q40 53 70 159l20 70h62l-98 -439h-1115zM700 1655q0 48 37 82q32 29 77 29q48 0 82 -37q29 -32 29 -75q0 -50 -37 -84q-33 -29 -75 -29q-50 0 -84 37q-29 33 -29 77zM1082 1659q0 48 38 83q31 29 77 29q48 0 82 -37q29 -33 29 -76q0 -50 -37 -84q-33 -29 -76 -29 q-50 0 -84 38q-29 32 -29 76z" />
<glyph unicode="&#xcc;" horiz-adv-x="749" vert-adv-y="2457" d="M-3 0l16 57h160l353 1251h-178l16 57h554l-16 -57h-160l-352 -1251h177l-16 -57h-554zM503 1749q0 37 30 59q22 16 54 16q49 0 84 -37q34 -34 68 -97l117 -208h-61l-211 154q-81 60 -81 113z" />
<glyph unicode="&#xcd;" horiz-adv-x="749" vert-adv-y="2457" d="M-3 0l16 57h160l353 1251h-178l16 57h554l-16 -57h-160l-352 -1251h177l-16 -57h-554zM569 1481l158 233q80 117 146 117q39 0 62 -25q19 -20 19 -50q0 -48 -93 -111l-243 -164h-49z" />
<glyph unicode="&#xce;" horiz-adv-x="749" vert-adv-y="2457" d="M-3 0l16 57h160l353 1251h-178l16 57h554l-16 -57h-160l-352 -1251h177l-16 -57h-554zM384 1481l307 348h145l147 -348h-67l-179 193l-287 -193h-66z" />
<glyph unicode="&#xcf;" horiz-adv-x="749" vert-adv-y="2457" d="M-3 0l16 57h160l353 1251h-178l16 57h554l-16 -57h-160l-352 -1251h177l-16 -57h-554zM462 1655q0 48 37 82q32 29 77 29q48 0 82 -37q29 -32 29 -75q0 -50 -37 -84q-33 -29 -75 -29q-50 0 -84 37q-29 33 -29 77zM777 1659q0 48 38 83q31 29 77 29q48 0 82 -37 q29 -33 29 -76q0 -50 -37 -84q-33 -29 -76 -29q-50 0 -84 38q-29 32 -29 76z" />
<glyph unicode="&#xd0;" horiz-adv-x="1479" vert-adv-y="2457" d="M-3 0l16 57h160l174 615h-168l16 58h168l163 578h-178l16 57h515q138 0 215 -17q225 -52 328 -255q61 -121 61 -267q0 -163 -74 -330q-130 -294 -366 -420q-105 -56 -242 -68q-85 -8 -228 -8h-576zM390 57h248q167 0 256 47q149 79 241 309q132 332 132 567 q0 154 -91 249q-60 64 -205 75q-50 4 -173 4h-55l-163 -578h317l-16 -58h-317z" />
<glyph unicode="&#xd1;" horiz-adv-x="1551" vert-adv-y="2457" d="M-2 0l16 57h95q35 0 56 35q21 33 41 104l314 1112h-178l16 57h393l447 -1097l262 930q15 52 15 71q0 39 -52 39h-101l16 57h384l-17 -57h-85q-67 -3 -86 -87l-351 -1244h-91l-527 1271l-304 -1080q-12 -43 -12 -64q0 -20 18 -34q17 -13 33 -13h98l-16 -57h-384zM792 1538 q76 236 234 236q55 0 162 -48q92 -41 130 -41q65 0 102 93h56q-24 -91 -62 -147q-67 -96 -160 -96q-63 0 -161 50q-85 44 -130 44q-44 0 -70 -24q-20 -19 -46 -67h-55z" />
<glyph unicode="&#xd2;" horiz-adv-x="1431" vert-adv-y="2457" d="M165 536q0 174 72 340q148 340 437 468q116 51 242 51q216 0 366 -169q147 -166 147 -402q0 -196 -89 -384q-108 -228 -298 -357q-170 -115 -367 -115q-168 0 -299 99q-211 160 -211 469zM381 345q0 -156 88 -240q81 -78 231 -78q109 0 203 50q111 59 187 271 q44 124 98 391q36 176 36 287q0 171 -108 248q-86 61 -226 61q-180 0 -267 -123q-121 -170 -201 -544q-41 -189 -41 -323zM844 1749q0 37 30 59q22 16 54 16q49 0 84 -37q34 -34 68 -97l117 -208h-61l-211 154q-81 60 -81 113z" />
<glyph unicode="&#xd3;" horiz-adv-x="1431" vert-adv-y="2457" d="M165 536q0 174 72 340q148 340 437 468q116 51 242 51q216 0 366 -169q147 -166 147 -402q0 -196 -89 -384q-108 -228 -298 -357q-170 -115 -367 -115q-168 0 -299 99q-211 160 -211 469zM381 345q0 -156 88 -240q81 -78 231 -78q109 0 203 50q111 59 187 271 q44 124 98 391q36 176 36 287q0 171 -108 248q-86 61 -226 61q-180 0 -267 -123q-121 -170 -201 -544q-41 -189 -41 -323zM870 1481l158 233q80 117 146 117q39 0 62 -25q19 -20 19 -50q0 -48 -93 -111l-243 -164h-49z" />
<glyph unicode="&#xd4;" horiz-adv-x="1431" vert-adv-y="2457" d="M165 536q0 174 72 340q148 340 437 468q116 51 242 51q216 0 366 -169q147 -166 147 -402q0 -196 -89 -384q-108 -228 -298 -357q-170 -115 -367 -115q-168 0 -299 99q-211 160 -211 469zM381 345q0 -156 88 -240q81 -78 231 -78q109 0 203 50q111 59 187 271 q44 124 98 391q36 176 36 287q0 171 -108 248q-86 61 -226 61q-180 0 -267 -123q-121 -170 -201 -544q-41 -189 -41 -323zM725 1481l307 348h145l147 -348h-67l-179 193l-287 -193h-66z" />
<glyph unicode="&#xd5;" horiz-adv-x="1431" vert-adv-y="2457" d="M165 536q0 174 72 340q148 340 437 468q116 51 242 51q216 0 366 -169q147 -166 147 -402q0 -196 -89 -384q-108 -228 -298 -357q-170 -115 -367 -115q-168 0 -299 99q-211 160 -211 469zM381 345q0 -156 88 -240q81 -78 231 -78q109 0 203 50q111 59 187 271 q44 124 98 391q36 176 36 287q0 171 -108 248q-86 61 -226 61q-180 0 -267 -123q-121 -170 -201 -544q-41 -189 -41 -323zM732 1538q76 236 234 236q55 0 162 -48q92 -41 130 -41q65 0 102 93h56q-24 -91 -62 -147q-67 -96 -160 -96q-63 0 -161 50q-85 44 -130 44 q-44 0 -70 -24q-20 -19 -46 -67h-55z" />
<glyph unicode="&#xd6;" horiz-adv-x="1431" vert-adv-y="2457" d="M165 536q0 174 72 340q148 340 437 468q116 51 242 51q216 0 366 -169q147 -166 147 -402q0 -196 -89 -384q-108 -228 -298 -357q-170 -115 -367 -115q-168 0 -299 99q-211 160 -211 469zM381 345q0 -156 88 -240q81 -78 231 -78q109 0 203 50q111 59 187 271 q44 124 98 391q36 176 36 287q0 171 -108 248q-86 61 -226 61q-180 0 -267 -123q-121 -170 -201 -544q-41 -189 -41 -323zM770 1655q0 48 37 82q32 29 77 29q48 0 82 -37q29 -32 29 -75q0 -50 -37 -84q-33 -29 -75 -29q-50 0 -84 37q-29 33 -29 77zM1152 1659q0 48 38 83 q31 29 77 29q48 0 82 -37q29 -33 29 -76q0 -50 -37 -84q-33 -29 -76 -29q-50 0 -84 38q-29 32 -29 76z" />
<glyph unicode="&#xd7;" vert-adv-y="2457" d="M251 1026l43 43l338 -337l319 319l43 -43l-320 -319l338 -337l-43 -44l-338 338l-319 -319l-43 42l320 319z" />
<glyph unicode="&#xd8;" horiz-adv-x="1416" vert-adv-y="2457" d="M150 500q0 242 136 474q123 210 317 325q168 100 343 100q133 0 234 -70l107 166l54 -29l-110 -175q197 -169 197 -431q0 -257 -142 -486q-127 -205 -316 -313q-152 -87 -321 -87q-120 0 -238 62l-101 -158l-51 32l101 163q-51 38 -87 80q-123 149 -123 347zM368 345 q0 -121 44 -195l729 1119q-42 34 -78 48q-58 23 -136 23q-164 0 -263 -98q-105 -105 -197 -385q-99 -300 -99 -512zM456 100q93 -66 217 -66q129 0 236 74q111 77 179 288q144 449 144 647q0 115 -47 178z" />
<glyph unicode="&#xd9;" horiz-adv-x="1520" vert-adv-y="2457" d="M224 285q0 48 18 113l257 910h-178l17 57h550l-16 -57h-160l-254 -902q-23 -82 -23 -149q0 -104 73 -163q78 -64 229 -64q138 0 251 47q120 50 184 171q36 70 66 176l223 788q11 40 11 53q0 43 -49 43h-129l17 57h402l-17 -57h-72q-45 0 -63 -16q-26 -24 -34 -58 l-239 -847q-58 -205 -176 -300q-145 -117 -404 -117q-218 0 -352 95q-132 93 -132 220zM903 1749q0 37 30 59q22 16 54 16q49 0 84 -37q34 -34 68 -97l117 -208h-61l-211 154q-81 60 -81 113z" />
<glyph unicode="&#xda;" horiz-adv-x="1520" vert-adv-y="2457" d="M224 285q0 48 18 113l257 910h-178l17 57h550l-16 -57h-160l-254 -902q-23 -82 -23 -149q0 -104 73 -163q78 -64 229 -64q138 0 251 47q120 50 184 171q36 70 66 176l223 788q11 40 11 53q0 43 -49 43h-129l17 57h402l-17 -57h-72q-45 0 -63 -16q-26 -24 -34 -58 l-239 -847q-58 -205 -176 -300q-145 -117 -404 -117q-218 0 -352 95q-132 93 -132 220zM955 1481l158 233q80 117 146 117q39 0 62 -25q19 -20 19 -50q0 -48 -93 -111l-243 -164h-49z" />
<glyph unicode="&#xdb;" horiz-adv-x="1520" vert-adv-y="2457" d="M224 285q0 48 18 113l257 910h-178l17 57h550l-16 -57h-160l-254 -902q-23 -82 -23 -149q0 -104 73 -163q78 -64 229 -64q138 0 251 47q120 50 184 171q36 70 66 176l223 788q11 40 11 53q0 43 -49 43h-129l17 57h402l-17 -57h-72q-45 0 -63 -16q-26 -24 -34 -58 l-239 -847q-58 -205 -176 -300q-145 -117 -404 -117q-218 0 -352 95q-132 93 -132 220zM770 1481l307 348h145l147 -348h-67l-179 193l-287 -193h-66z" />
<glyph unicode="&#xdc;" horiz-adv-x="1520" vert-adv-y="2457" d="M224 285q0 48 18 113l257 910h-178l17 57h550l-16 -57h-160l-254 -902q-23 -82 -23 -149q0 -104 73 -163q78 -64 229 -64q138 0 251 47q120 50 184 171q36 70 66 176l223 788q11 40 11 53q0 43 -49 43h-129l17 57h402l-17 -57h-72q-45 0 -63 -16q-26 -24 -34 -58 l-239 -847q-58 -205 -176 -300q-145 -117 -404 -117q-218 0 -352 95q-132 93 -132 220zM814 1655q0 48 37 82q32 29 77 29q48 0 82 -37q29 -32 29 -75q0 -50 -37 -84q-33 -29 -75 -29q-50 0 -84 37q-29 33 -29 77zM1196 1659q0 48 38 83q31 29 77 29q48 0 82 -37 q29 -33 29 -76q0 -50 -37 -84q-33 -29 -76 -29q-50 0 -84 38q-29 32 -29 76z" />
<glyph unicode="&#xdd;" horiz-adv-x="1013" vert-adv-y="2457" d="M93 0l16 57h160l151 536l-85 715h-148l16 57h531l-17 -57h-165l66 -661l443 583q26 35 26 61q0 17 -23 17h-120l17 57h321l-16 -57h-59q-19 -1 -47 -39l-535 -706l-143 -506h178l-16 -57h-551zM728 1481l158 233q80 117 146 117q39 0 62 -25q19 -20 19 -50 q0 -48 -93 -111l-243 -164h-49z" />
<glyph unicode="&#xde;" horiz-adv-x="1276" vert-adv-y="2457" d="M-3 0l16 57h160l353 1251h-178l16 57h553l-17 -57h-159l-45 -157h112q141 0 217 -12q151 -23 226 -125q61 -83 61 -188q0 -192 -186 -314q-153 -101 -396 -101h-242l-100 -354h177l-16 -57h-552zM504 469h191q182 0 278 104q66 74 94 185q15 58 15 115q0 99 -49 158 q-52 62 -162 62h-191z" />
<glyph unicode="&#xdf;" horiz-adv-x="1151" vert-adv-y="2457" d="M-317 -372q0 50 29 83q31 36 80 36q41 0 67 -33q19 -24 19 -57q0 -39 -20 -62q-13 -14 -13 -16q0 -11 17 -11q38 0 78 47q69 84 137 394l120 551q80 366 160 525q74 149 200 242q155 114 314 114q125 0 220 -85q81 -72 81 -170q0 -108 -93 -191q-60 -54 -187 -134 q-74 -47 -103 -77q-33 -35 -33 -76q0 -48 38 -81q13 -12 112 -80q91 -62 113 -90q48 -64 48 -150q0 -125 -99 -219q-113 -108 -271 -108q-124 0 -192 79q-55 63 -55 143q0 61 36 101q38 41 89 41q48 0 76 -38q22 -31 22 -66q0 -65 -74 -107q-22 -12 -22 -22q0 -7 8 -17 q42 -54 126 -54q102 0 166 67q40 43 40 103q0 40 -24 79q-28 46 -118 103q-127 80 -157 133q-22 38 -22 78q0 77 65 151q46 51 103 92l111 78q98 69 142 145q40 67 40 124q0 84 -68 142q-52 45 -139 45q-145 0 -234 -114q-43 -55 -67 -121q-21 -57 -44 -140l-181 -642 q-79 -297 -132 -433q-84 -218 -194 -334q-83 -88 -178 -88q-75 0 -113 49q-24 31 -24 71z" />
<glyph unicode="&#xe0;" horiz-adv-x="1155" vert-adv-y="2457" d="M81 329q0 221 211 385q176 137 364 137q55 0 99 -18q49 -20 98 -98l20 71h182l-182 -644q-11 -40 -11 -67q0 -23 14 -35q8 -7 15 -7q57 0 164 172l50 -29q-57 -81 -78 -108q-84 -108 -194 -108q-64 0 -102 39q-28 28 -40 105q-90 -96 -158 -124q-57 -23 -116 -23 q-111 0 -196 69q-140 113 -140 283zM253 212q0 -93 60 -139q50 -39 123 -39q116 0 210 107q58 65 78 136l96 340q1 5 1 10q0 33 -22 82q-38 82 -150 82q-210 0 -307 -222q-35 -80 -64 -192q-25 -95 -25 -165zM526 1275q0 36 32 61q23 17 55 17q53 0 82 -43q18 -27 40 -83 l112 -282h-52l-183 194q-86 89 -86 136z" />
<glyph unicode="&#xe1;" horiz-adv-x="1155" vert-adv-y="2457" d="M81 329q0 221 211 385q176 137 364 137q55 0 99 -18q49 -20 98 -98l20 71h182l-182 -644q-11 -40 -11 -67q0 -23 14 -35q8 -7 15 -7q57 0 164 172l50 -29q-57 -81 -78 -108q-84 -108 -194 -108q-64 0 -102 39q-28 28 -40 105q-90 -96 -158 -124q-57 -23 -116 -23 q-111 0 -196 69q-140 113 -140 283zM253 212q0 -93 60 -139q50 -39 123 -39q116 0 210 107q58 65 78 136l96 340q1 5 1 10q0 33 -22 82q-38 82 -150 82q-210 0 -307 -222q-35 -80 -64 -192q-25 -95 -25 -165zM609 945l195 290q40 60 59 80q39 41 90 41q36 0 59 -21 q24 -21 24 -50q0 -44 -68 -97l-310 -243h-49z" />
<glyph unicode="&#xe2;" horiz-adv-x="1155" vert-adv-y="2457" d="M81 329q0 221 211 385q176 137 364 137q55 0 99 -18q49 -20 98 -98l20 71h182l-182 -644q-11 -40 -11 -67q0 -23 14 -35q8 -7 15 -7q57 0 164 172l50 -29q-57 -81 -78 -108q-84 -108 -194 -108q-64 0 -102 39q-28 28 -40 105q-90 -96 -158 -124q-57 -23 -116 -23 q-111 0 -196 69q-140 113 -140 283zM253 212q0 -93 60 -139q50 -39 123 -39q116 0 210 107q58 65 78 136l96 340q1 5 1 10q0 33 -22 82q-38 82 -150 82q-210 0 -307 -222q-35 -80 -64 -192q-25 -95 -25 -165zM394 945l326 408h140l134 -408h-62l-173 243l-304 -243h-61z" />
<glyph unicode="&#xe3;" horiz-adv-x="1155" vert-adv-y="2457" d="M81 329q0 221 211 385q176 137 364 137q55 0 99 -18q49 -20 98 -98l20 71h182l-182 -644q-11 -40 -11 -67q0 -23 14 -35q8 -7 15 -7q57 0 164 172l50 -29q-57 -81 -78 -108q-84 -108 -194 -108q-64 0 -102 39q-28 28 -40 105q-90 -96 -158 -124q-57 -23 -116 -23 q-111 0 -196 69q-140 113 -140 283zM253 212q0 -93 60 -139q50 -39 123 -39q116 0 210 107q58 65 78 136l96 340q1 5 1 10q0 33 -22 82q-38 82 -150 82q-210 0 -307 -222q-35 -80 -64 -192q-25 -95 -25 -165zM407 1024q84 236 233 236q57 0 167 -48q102 -45 135 -45 q39 0 64 37q14 20 29 65h61q-27 -101 -71 -156q-72 -93 -158 -93q-52 0 -208 71q-63 28 -99 28q-33 0 -55 -27q-17 -19 -43 -68h-55z" />
<glyph unicode="&#xe4;" horiz-adv-x="1155" vert-adv-y="2457" d="M81 329q0 221 211 385q176 137 364 137q55 0 99 -18q49 -20 98 -98l20 71h182l-182 -644q-11 -40 -11 -67q0 -23 14 -35q8 -7 15 -7q57 0 164 172l50 -29q-57 -81 -78 -108q-84 -108 -194 -108q-64 0 -102 39q-28 28 -40 105q-90 -96 -158 -124q-57 -23 -116 -23 q-111 0 -196 69q-140 113 -140 283zM253 212q0 -93 60 -139q50 -39 123 -39q116 0 210 107q58 65 78 136l96 340q1 5 1 10q0 33 -22 82q-38 82 -150 82q-210 0 -307 -222q-35 -80 -64 -192q-25 -95 -25 -165zM471 1142q0 46 35 78q30 27 72 27q45 0 77 -35q27 -30 27 -70 q0 -47 -35 -79q-31 -27 -71 -27q-46 0 -78 35q-27 30 -27 71zM814 1141q0 46 36 78q30 28 73 28q45 0 77 -36q28 -30 28 -71q0 -47 -36 -79q-30 -28 -71 -28q-47 0 -79 36q-28 30 -28 72z" />
<glyph unicode="&#xe5;" horiz-adv-x="1155" vert-adv-y="2457" d="M81 329q0 221 211 385q176 137 364 137q55 0 99 -18q49 -20 98 -98l20 71h182l-182 -644q-11 -40 -11 -67q0 -23 14 -35q8 -7 15 -7q57 0 164 172l50 -29q-57 -81 -78 -108q-84 -108 -194 -108q-64 0 -102 39q-28 28 -40 105q-90 -96 -158 -124q-57 -23 -116 -23 q-111 0 -196 69q-140 113 -140 283zM253 212q0 -93 60 -139q50 -39 123 -39q116 0 210 107q58 65 78 136l96 340q1 5 1 10q0 33 -22 82q-38 82 -150 82q-210 0 -307 -222q-35 -80 -64 -192q-25 -95 -25 -165zM554 1151q0 85 66 145q55 51 135 51q83 0 143 -66 q51 -56 51 -131q0 -88 -66 -147q-56 -51 -132 -51q-87 0 -146 65q-51 57 -51 134zM628 1149q0 -54 41 -91q35 -31 81 -31q54 0 91 40q32 35 32 83q0 52 -41 89q-35 32 -83 32q-52 0 -89 -41q-32 -34 -32 -81z" />
<glyph unicode="&#xe6;" horiz-adv-x="1346" vert-adv-y="2457" d="M76 304q0 163 105 310q95 133 234 198q87 41 162 41q53 0 93 -23q35 -21 72 -88l18 64h179l-6 -21q52 37 87 51q34 14 87 14q83 0 143 -39q73 -48 73 -141q0 -117 -101 -190q-95 -68 -248 -68q-70 0 -142 15l-32 -114q-23 -80 -23 -141q0 -56 40 -93q42 -39 107 -39 q82 0 159 52q65 43 153 166l40 -30q-147 -249 -415 -249q-83 0 -153 34q-49 24 -73 52q-20 24 -43 77q-77 -96 -130 -127q-60 -36 -118 -36q-113 0 -195 107q-73 94 -73 218zM243 171q0 -76 44 -110q27 -22 62 -22q63 0 134 63q43 38 55 58q74 122 78 135l86 307q3 10 3 22 q0 78 -42 125q-37 42 -101 42q-105 0 -164 -100q-68 -115 -122 -317q-33 -123 -33 -203zM848 484q58 -14 113 -14q90 0 134 35q74 60 74 177q0 61 -30 87q-25 21 -56 21q-32 0 -68.5 -16t-58.5 -39q-19 -20 -44 -66q-23 -41 -29 -62z" />
<glyph unicode="&#xe7;" horiz-adv-x="898" vert-adv-y="2457" d="M77 311q0 148 92 279q88 127 233 199q122 61 246 61q112 0 179 -50q66 -50 66 -130q0 -62 -49 -99q-27 -19 -57 -19q-34 0 -61 25q-38 35 -38 97q0 43 20 80q5 9 5 14q0 22 -81 22q-212 0 -301 -255q-39 -112 -58 -236q-9 -58 -9 -95q0 -166 168 -166q144 0 250 104 q48 47 127 187l51 -27q-104 -186 -215 -260q-88 -57 -197 -65l-113 -129q38 7 62 7q66 0 108 -33q47 -36 47 -92q0 -70 -70 -117q-60 -40 -153 -40q-103 0 -212 59l34 49q78 -42 145 -42q49 0 78 24q26 21 26 56q0 66 -83 66q-37 0 -74 -21l-26 32l159 184q-90 13 -168 71 q-131 99 -131 260z" />
<glyph unicode="&#xe8;" horiz-adv-x="914" vert-adv-y="2457" d="M82 333q0 127 85 249q97 138 257 217q108 53 206 53q107 0 184 -49t77 -147q0 -82 -62 -139q-121 -110 -364 -110q-91 0 -177 20q-26 -112 -26 -200q0 -119 66 -159q47 -29 116 -29q121 0 219 70q65 47 136 148l46 -28q-51 -85 -100 -130q-132 -120 -299 -120 q-153 0 -264 110q-100 101 -100 244zM303 485q99 -20 178 -20q139 0 200 63q56 57 56 138q0 124 -132 124q-124 0 -201 -97q-70 -87 -101 -208zM405 1275q0 36 32 61q23 17 55 17q53 0 82 -43q18 -27 40 -83l112 -282h-52l-183 194q-86 89 -86 136z" />
<glyph unicode="&#xe9;" horiz-adv-x="914" vert-adv-y="2457" d="M82 333q0 127 85 249q97 138 257 217q108 53 206 53q107 0 184 -49t77 -147q0 -82 -62 -139q-121 -110 -364 -110q-91 0 -177 20q-26 -112 -26 -200q0 -119 66 -159q47 -29 116 -29q121 0 219 70q65 47 136 148l46 -28q-51 -85 -100 -130q-132 -120 -299 -120 q-153 0 -264 110q-100 101 -100 244zM303 485q99 -20 178 -20q139 0 200 63q56 57 56 138q0 124 -132 124q-124 0 -201 -97q-70 -87 -101 -208zM489 945l195 290q40 60 59 80q39 41 90 41q36 0 59 -21q24 -21 24 -50q0 -44 -68 -97l-310 -243h-49z" />
<glyph unicode="&#xea;" horiz-adv-x="914" vert-adv-y="2457" d="M82 333q0 127 85 249q97 138 257 217q108 53 206 53q107 0 184 -49t77 -147q0 -82 -62 -139q-121 -110 -364 -110q-91 0 -177 20q-26 -112 -26 -200q0 -119 66 -159q47 -29 116 -29q121 0 219 70q65 47 136 148l46 -28q-51 -85 -100 -130q-132 -120 -299 -120 q-153 0 -264 110q-100 101 -100 244zM303 485q99 -20 178 -20q139 0 200 63q56 57 56 138q0 124 -132 124q-124 0 -201 -97q-70 -87 -101 -208zM342 945l326 408h140l134 -408h-62l-173 243l-304 -243h-61z" />
<glyph unicode="&#xeb;" horiz-adv-x="914" vert-adv-y="2457" d="M82 333q0 127 85 249q97 138 257 217q108 53 206 53q107 0 184 -49t77 -147q0 -82 -62 -139q-121 -110 -364 -110q-91 0 -177 20q-26 -112 -26 -200q0 -119 66 -159q47 -29 116 -29q121 0 219 70q65 47 136 148l46 -28q-51 -85 -100 -130q-132 -120 -299 -120 q-153 0 -264 110q-100 101 -100 244zM303 485q99 -20 178 -20q139 0 200 63q56 57 56 138q0 124 -132 124q-124 0 -201 -97q-70 -87 -101 -208zM351 1142q0 46 35 78q30 27 72 27q45 0 77 -35q27 -30 27 -70q0 -47 -35 -79q-30 -27 -71 -27q-46 0 -78 35q-27 30 -27 71z M693 1141q0 46 36 78q30 28 73 28q45 0 77 -36q28 -30 28 -71q0 -47 -36 -79q-30 -28 -71 -28q-47 0 -79 36q-28 30 -28 72z" />
<glyph unicode="&#xec;" horiz-adv-x="566" vert-adv-y="2457" d="M128 131q0 32 19 98l146 520h-126l17 57h125q82 0 118 10q27 6 81 44l-194 -687q-14 -50 -14 -72q0 -46 38 -46q42 0 104 59q47 44 94 115l45 -28q-138 -221 -303 -221q-73 0 -116 52q-34 39 -34 99zM258 1275q0 36 32 61q23 17 55 17q54 0 82 -43q32 -50 40 -83l72 -282 h-52l-143 194q-2 4 -23 24q-63 63 -63 112z" />
<glyph unicode="&#xed;" horiz-adv-x="566" vert-adv-y="2457" d="M100 131q0 32 19 98l146 520h-126l17 57h125q82 0 118 10q27 6 81 44l-194 -687q-14 -50 -14 -72q0 -46 38 -46q42 0 104 59q47 44 94 115l45 -28q-138 -221 -303 -221q-73 0 -116 52q-34 39 -34 99zM341 945l195 290q40 60 59 80q39 41 90 41q36 0 59 -21q24 -21 24 -50 q0 -44 -68 -97l-310 -243h-49z" />
<glyph unicode="&#xee;" horiz-adv-x="566" vert-adv-y="2457" d="M100 131q0 32 19 98l146 520h-126l17 57h125q82 0 118 10q27 6 81 44l-194 -687q-14 -50 -14 -72q0 -46 38 -46q42 0 104 59q47 44 94 115l45 -28q-138 -221 -303 -221q-73 0 -116 52q-34 39 -34 99zM154 945l298 408h140l106 -408h-61l-146 243l-277 -243h-60z" />
<glyph unicode="&#xef;" horiz-adv-x="566" vert-adv-y="2457" d="M100 131q0 32 19 98l146 520h-126l17 57h125q82 0 118 10q27 6 81 44l-194 -687q-14 -50 -14 -72q0 -46 38 -46q42 0 104 59q47 44 94 115l45 -28q-138 -221 -303 -221q-73 0 -116 52q-34 39 -34 99zM230 1142q0 46 35 78q30 27 72 27q45 0 77 -35q27 -30 27 -70 q0 -47 -35 -79q-30 -27 -71 -27q-46 0 -78 35q-27 30 -27 71zM519 1141q0 46 36 78q30 28 73 28q45 0 77 -36q28 -30 28 -71q0 -47 -36 -79q-30 -28 -71 -28q-47 0 -79 36q-28 30 -28 72z" />
<glyph unicode="&#xf0;" horiz-adv-x="1023" vert-adv-y="2457" d="M82 325q0 177 123 325q167 201 421 201q67 0 151 -32q-38 126 -59 169q-38 84 -118 190l-264 -111l-23 57l244 101q-85 90 -228 170l32 53q76 -34 157 -86q83 -54 129 -102l244 102l23 -57l-223 -89q73 -73 142 -184q75 -121 105 -219q31 -101 31 -220q0 -269 -157 -442 q-81 -89 -190 -134q-91 -38 -187 -38q-172 0 -273 118q-80 93 -80 228zM253 205q0 -164 185 -164q154 0 223 129q23 44 80 220q55 172 55 256q0 68 -50 109q-46 37 -146 37q-107 0 -164 -57q-68 -67 -131 -272q-52 -168 -52 -258z" />
<glyph unicode="&#xf1;" horiz-adv-x="1208" vert-adv-y="2457" d="M89 0l211 749h-126l17 57h153q54 -1 95 14q16 6 74 40l-65 -232q200 223 400 223q105 0 170 -61q45 -42 45 -121q0 -42 -13 -82l-141 -420q-14 -42 -14 -73q0 -38 30 -38q25 0 66 36q51 46 111 144l48 -28q-62 -99 -107 -143q-88 -87 -175 -87q-57 0 -94 29 q-49 39 -49 115q0 56 23 123l140 416q13 37 13 54q0 65 -76 65q-109 0 -229 -91q-70 -53 -118 -110q-67 -80 -84 -142l-123 -437h-182zM433 1024q84 236 233 236q57 0 167 -48q102 -45 135 -45q39 0 64 37q14 20 29 65h61q-27 -101 -71 -156q-72 -93 -158 -93q-52 0 -208 71 q-63 28 -99 28q-33 0 -55 -27q-17 -19 -43 -68h-55z" />
<glyph unicode="&#xf2;" horiz-adv-x="1025" vert-adv-y="2457" d="M82 325q0 123 66 241q99 177 291 251q86 33 185 33q90 0 160 -36q92 -47 140 -136q39 -73 39 -158q0 -132 -71 -257q-103 -183 -286 -251q-88 -33 -175 -33q-124 0 -219 71q-130 97 -130 275zM253 211q0 -71 33 -111q48 -60 154 -60q124 0 188 78q52 64 114 266 q55 178 55 259q0 75 -56 112q-52 35 -145 35q-111 0 -170 -68q-64 -76 -130 -291q-43 -140 -43 -220zM460 1275q0 36 32 61q23 17 55 17q53 0 82 -43q18 -27 40 -83l112 -282h-52l-183 194q-86 89 -86 136z" />
<glyph unicode="&#xf3;" horiz-adv-x="1025" vert-adv-y="2457" d="M82 325q0 123 66 241q99 177 291 251q86 33 185 33q90 0 160 -36q92 -47 140 -136q39 -73 39 -158q0 -132 -71 -257q-103 -183 -286 -251q-88 -33 -175 -33q-124 0 -219 71q-130 97 -130 275zM253 211q0 -71 33 -111q48 -60 154 -60q124 0 188 78q52 64 114 266 q55 178 55 259q0 75 -56 112q-52 35 -145 35q-111 0 -170 -68q-64 -76 -130 -291q-43 -140 -43 -220zM544 945l195 290q40 60 59 80q39 41 90 41q36 0 59 -21q24 -21 24 -50q0 -44 -68 -97l-310 -243h-49z" />
<glyph unicode="&#xf4;" horiz-adv-x="1025" vert-adv-y="2457" d="M82 325q0 123 66 241q99 177 291 251q86 33 185 33q90 0 160 -36q92 -47 140 -136q39 -73 39 -158q0 -132 -71 -257q-103 -183 -286 -251q-88 -33 -175 -33q-124 0 -219 71q-130 97 -130 275zM253 211q0 -71 33 -111q48 -60 154 -60q124 0 188 78q52 64 114 266 q55 178 55 259q0 75 -56 112q-52 35 -145 35q-111 0 -170 -68q-64 -76 -130 -291q-43 -140 -43 -220zM350 945l326 408h140l134 -408h-62l-173 243l-304 -243h-61z" />
<glyph unicode="&#xf5;" horiz-adv-x="1025" vert-adv-y="2457" d="M82 325q0 123 66 241q99 177 291 251q86 33 185 33q90 0 160 -36q92 -47 140 -136q39 -73 39 -158q0 -132 -71 -257q-103 -183 -286 -251q-88 -33 -175 -33q-124 0 -219 71q-130 97 -130 275zM253 211q0 -71 33 -111q48 -60 154 -60q124 0 188 78q52 64 114 266 q55 178 55 259q0 75 -56 112q-52 35 -145 35q-111 0 -170 -68q-64 -76 -130 -291q-43 -140 -43 -220zM342 1024q84 236 233 236q57 0 167 -48q102 -45 135 -45q39 0 64 37q14 20 29 65h61q-27 -101 -71 -156q-72 -93 -158 -93q-52 0 -208 71q-63 28 -99 28q-33 0 -55 -27 q-17 -19 -43 -68h-55z" />
<glyph unicode="&#xf6;" horiz-adv-x="1025" vert-adv-y="2457" d="M82 325q0 123 66 241q99 177 291 251q86 33 185 33q90 0 160 -36q92 -47 140 -136q39 -73 39 -158q0 -132 -71 -257q-103 -183 -286 -251q-88 -33 -175 -33q-124 0 -219 71q-130 97 -130 275zM253 211q0 -71 33 -111q48 -60 154 -60q124 0 188 78q52 64 114 266 q55 178 55 259q0 75 -56 112q-52 35 -145 35q-111 0 -170 -68q-64 -76 -130 -291q-43 -140 -43 -220zM406 1142q0 46 35 78q30 27 72 27q45 0 77 -35q27 -30 27 -70q0 -47 -35 -79q-30 -27 -71 -27q-46 0 -78 35q-27 30 -27 71zM749 1141q0 46 36 78q30 28 73 28 q45 0 77 -36q28 -30 28 -71q0 -47 -36 -79q-30 -28 -71 -28q-47 0 -79 36q-28 30 -28 72z" />
<glyph unicode="&#xf7;" vert-adv-y="2457" d="M183 658v61h896v-61h-896zM551 387q0 34 26 58q23 21 55 21q33 0 57 -26q21 -23 21 -53q0 -36 -27 -59q-23 -21 -53 -21q-35 0 -59 26q-20 23 -20 54zM551 991q0 33 26 57q23 21 54 21q34 0 57 -26q21 -23 21 -53q0 -35 -26 -59q-23 -20 -53 -20q-35 0 -59 26 q-20 23 -20 54z" />
<glyph unicode="&#xf8;" horiz-adv-x="1016" vert-adv-y="2457" d="M76 327q0 204 158 360q165 164 384 164q65 0 131 -26l91 138l51 -27l-90 -137q45 -28 69 -54q34 -36 56 -88q30 -71 30 -142q0 -193 -143 -353q-73 -82 -170 -129q-106 -52 -218 -52q-68 0 -141 25l-89 -137l-46 32l84 129q-157 98 -157 297zM246 197q0 -58 32 -96 l433 666q-42 24 -117 24q-126 0 -193 -97q-67 -95 -131 -340q-24 -94 -24 -157zM323 64q51 -24 100 -24q94 0 153 37q65 41 113 175q102 280 102 381q0 57 -33 99z" />
<glyph unicode="&#xf9;" horiz-adv-x="1159" vert-adv-y="2457" d="M105 141q0 38 25 127l136 481h-126l16 57h139q50 0 104 13q31 7 79 41l-167 -592q-39 -141 -39 -163q0 -62 75 -62q95 0 197 77q79 58 181 201q24 33 30 48q2 5 12 40l112 397h180l-177 -629q-16 -56 -16 -74q0 -38 31 -38q49 0 111 82q28 37 59 84l41 -32 q-36 -62 -65 -100q-87 -119 -201 -119q-90 0 -126 65q-19 33 -19 78q0 31 13 85q-82 -100 -150 -149q-112 -80 -244 -80q-130 0 -183 71q-28 38 -28 91zM528 1275q0 36 32 61q23 17 55 17q53 0 82 -43q18 -27 40 -83l112 -282h-52l-183 194q-86 89 -86 136z" />
<glyph unicode="&#xfa;" horiz-adv-x="1159" vert-adv-y="2457" d="M105 141q0 38 25 127l136 481h-126l16 57h139q50 0 104 13q31 7 79 41l-167 -592q-39 -141 -39 -163q0 -62 75 -62q95 0 197 77q79 58 181 201q24 33 30 48q2 5 12 40l112 397h180l-177 -629q-16 -56 -16 -74q0 -38 31 -38q49 0 111 82q28 37 59 84l41 -32 q-36 -62 -65 -100q-87 -119 -201 -119q-90 0 -126 65q-19 33 -19 78q0 31 13 85q-82 -100 -150 -149q-112 -80 -244 -80q-130 0 -183 71q-28 38 -28 91zM611 945l195 290q40 60 59 80q39 41 90 41q36 0 59 -21q24 -21 24 -50q0 -44 -68 -97l-310 -243h-49z" />
<glyph unicode="&#xfb;" horiz-adv-x="1159" vert-adv-y="2457" d="M105 141q0 38 25 127l136 481h-126l16 57h139q50 0 104 13q31 7 79 41l-167 -592q-39 -141 -39 -163q0 -62 75 -62q95 0 197 77q79 58 181 201q24 33 30 48q2 5 12 40l112 397h180l-177 -629q-16 -56 -16 -74q0 -38 31 -38q49 0 111 82q28 37 59 84l41 -32 q-36 -62 -65 -100q-87 -119 -201 -119q-90 0 -126 65q-19 33 -19 78q0 31 13 85q-82 -100 -150 -149q-112 -80 -244 -80q-130 0 -183 71q-28 38 -28 91zM396 945l326 408h140l134 -408h-62l-173 243l-304 -243h-61z" />
<glyph unicode="&#xfc;" horiz-adv-x="1159" vert-adv-y="2457" d="M105 141q0 38 25 127l136 481h-126l16 57h139q50 0 104 13q31 7 79 41l-167 -592q-39 -141 -39 -163q0 -62 75 -62q95 0 197 77q79 58 181 201q24 33 30 48q2 5 12 40l112 397h180l-177 -629q-16 -56 -16 -74q0 -38 31 -38q49 0 111 82q28 37 59 84l41 -32 q-36 -62 -65 -100q-87 -119 -201 -119q-90 0 -126 65q-19 33 -19 78q0 31 13 85q-82 -100 -150 -149q-112 -80 -244 -80q-130 0 -183 71q-28 38 -28 91zM474 1142q0 46 35 78q30 27 72 27q45 0 77 -35q27 -30 27 -70q0 -47 -35 -79q-31 -27 -71 -27q-46 0 -78 35 q-27 30 -27 71zM816 1141q0 46 36 78q30 28 73 28q45 0 77 -36q28 -30 28 -71q0 -47 -36 -79q-30 -28 -71 -28q-47 0 -79 36q-28 30 -28 72z" />
<glyph unicode="&#xfd;" horiz-adv-x="1010" vert-adv-y="2457" d="M-190 -336q0 47 35 81q35 33 76 33q38 0 65 -29q24 -25 24 -60q0 -19 -10 -44q-9 -22 -16 -30q-6 -7 -6 -10q0 -11 23 -11q114 0 233 135q47 55 155 226l-99 663q-17 111 -53 111q-24 0 -58 -41q-47 -56 -92 -153l-53 22q42 101 106 177q98 116 203 116q93 0 115 -130 l86 -510l235 409q56 98 102 152q66 79 140 79q50 0 80 -41q20 -28 20 -66q0 -57 -40 -91q-29 -25 -64 -25q-33 0 -53 20q-21 21 -21 52q0 6 5 35v5q0 10 -7 10q-14 0 -39 -36q-62 -95 -318 -552q-150 -269 -271 -425q-156 -201 -343 -201q-96 0 -137 57q-23 32 -23 72z M577 945l195 290q40 60 59 80q39 41 90 41q36 0 59 -21q24 -21 24 -50q0 -44 -68 -97l-310 -243h-49z" />
<glyph unicode="&#xfe;" horiz-adv-x="1140" vert-adv-y="2457" d="M-208 -526l16 57h126l508 1803h-125l16 58h117q83 0 124 10q36 8 82 52l-198 -706q73 61 133 81q64 21 126 21q131 0 228 -76q127 -98 127 -268q0 -143 -73 -264q-87 -144 -259 -216q-114 -48 -233 -48q-76 0 -137 25q-58 23 -98 88l-158 -560h126l-16 -57h-432zM313 207 q0 -70 42 -113q55 -54 164 -54q121 0 198 81q90 95 138 253q34 113 34 235q0 181 -183 181q-80 0 -143 -38q-52 -31 -95 -83q-50 -61 -67 -122l-81 -285q-7 -26 -7 -55z" />
<glyph unicode="&#xff;" horiz-adv-x="1010" vert-adv-y="2457" d="M-190 -336q0 47 35 81q35 33 76 33q38 0 65 -29q24 -25 24 -60q0 -19 -10 -44q-9 -22 -16 -30q-6 -7 -6 -10q0 -11 23 -11q114 0 233 135q47 55 155 226l-99 663q-17 111 -53 111q-24 0 -58 -41q-47 -56 -92 -153l-53 22q42 101 106 177q98 116 203 116q93 0 115 -130 l86 -510l235 409q56 98 102 152q66 79 140 79q50 0 80 -41q20 -28 20 -66q0 -57 -40 -91q-29 -25 -64 -25q-33 0 -53 20q-21 21 -21 52q0 6 5 35v5q0 10 -7 10q-14 0 -39 -36q-62 -95 -318 -552q-150 -269 -271 -425q-156 -201 -343 -201q-96 0 -137 57q-23 32 -23 72z M440 1142q0 46 35 78q30 27 72 27q45 0 77 -35q27 -30 27 -70q0 -47 -35 -79q-30 -27 -71 -27q-46 0 -78 35q-27 30 -27 71zM782 1141q0 46 36 78q30 28 73 28q45 0 77 -36q28 -30 28 -71q0 -47 -36 -79q-30 -28 -71 -28q-47 0 -79 36q-28 30 -28 72z" />
<glyph unicode="&#x152;" horiz-adv-x="1866" vert-adv-y="2457" d="M157 489q0 256 140 496q99 168 247 269q122 83 281 105q102 13 198 13l191 -7h740l-53 -393h-57v72l1 46q0 101 -52 163q-46 55 -129 55h-265l-153 -542h103q57 0 82 21q26 19 38 65l34 120h55l-118 -532h-56l24 127q12 57 12 68q0 29 -18 48q-21 23 -62 23h-111 l-183 -649h241q129 1 197 33q96 47 154 128q36 52 62 141l22 81h60l-96 -440h-937q-11 0 -77 -6q-30 -3 -59 -3q-179 0 -303 115q-153 143 -153 383zM372 336q0 -165 86 -235q65 -54 190 -54q71 0 186 10l352 1251q-131 8 -192 8q-126 0 -202 -31q-192 -80 -309 -406 q-111 -312 -111 -543z" />
<glyph unicode="&#x153;" horiz-adv-x="1356" vert-adv-y="2457" d="M80 313q0 151 91 294q98 154 254 214q78 30 158 30q171 0 254 -144q38 46 89 81q96 68 190 68q96 0 159 -53q57 -48 57 -133q0 -115 -93 -186q-98 -76 -254 -76q-66 0 -141 15q-34 -134 -34 -228q0 -155 143 -155q100 0 198 97q23 23 91 122l44 -30q-143 -249 -364 -249 q-84 0 -152 48q-48 34 -78 84q-59 -63 -115 -91q-84 -43 -185 -43q-108 0 -191 64q-121 94 -121 271zM250 202q0 -98 63 -139q39 -25 90 -25q140 0 213 204q15 42 53 194q29 119 29 213q0 142 -127 142q-76 0 -128 -45q-44 -38 -94 -153q-43 -99 -78 -253q-21 -91 -21 -138z M859 479q6 -1 12 -3l7 -2q36 -9 87 -9q90 0 130 30q46 34 71 114q14 44 14 84q0 100 -88 100q-142 0 -233 -314z" />
<glyph unicode="&#x178;" horiz-adv-x="1013" vert-adv-y="2457" d="M93 0l16 57h160l151 536l-85 715h-148l16 57h531l-17 -57h-165l66 -661l443 583q26 35 26 61q0 17 -23 17h-120l17 57h321l-16 -57h-59q-19 -1 -47 -39l-535 -706l-143 -506h178l-16 -57h-551zM560 1655q0 48 37 82q32 29 77 29q48 0 82 -37q29 -32 29 -75q0 -50 -37 -84 q-33 -29 -76 -29q-49 0 -83 37q-29 33 -29 77zM942 1659q0 48 38 83q31 29 77 29q48 0 82 -38q29 -32 29 -75q0 -50 -37 -84q-33 -29 -76 -29q-50 0 -84 38q-29 32 -29 76z" />
<glyph unicode="&#x2c6;" horiz-adv-x="1024" vert-adv-y="2457" d="M356 945l326 408h140l134 -408h-62l-173 243l-304 -243h-61z" />
<glyph unicode="&#x2dc;" horiz-adv-x="1024" vert-adv-y="2457" d="M341 1024q84 236 233 236q57 0 167 -48q102 -45 135 -45q39 0 64 37q14 20 29 65h61q-27 -101 -71 -156q-72 -93 -158 -93q-52 0 -208 71q-63 28 -99 28q-33 0 -55 -27q-17 -19 -43 -68h-55z" />
<glyph unicode="&#x2000;" horiz-adv-x="936" vert-adv-y="0" />
<glyph unicode="&#x2001;" horiz-adv-x="1872" vert-adv-y="0" />
<glyph unicode="&#x2002;" horiz-adv-x="936" vert-adv-y="0" />
<glyph unicode="&#x2003;" horiz-adv-x="1872" vert-adv-y="0" />
<glyph unicode="&#x2004;" horiz-adv-x="624" vert-adv-y="0" />
<glyph unicode="&#x2005;" horiz-adv-x="468" vert-adv-y="0" />
<glyph unicode="&#x2006;" horiz-adv-x="312" vert-adv-y="0" />
<glyph unicode="&#x2007;" horiz-adv-x="312" vert-adv-y="0" />
<glyph unicode="&#x2008;" horiz-adv-x="234" vert-adv-y="0" />
<glyph unicode="&#x2009;" horiz-adv-x="374" vert-adv-y="0" />
<glyph unicode="&#x200a;" horiz-adv-x="104" vert-adv-y="0" />
<glyph unicode="&#x2010;" horiz-adv-x="422" vert-adv-y="2457" d="M-3 375l30 107h422l-30 -107h-422z" />
<glyph unicode="&#x2011;" horiz-adv-x="422" vert-adv-y="2457" d="M-3 375l30 107h422l-30 -107h-422z" />
<glyph unicode="&#x2012;" horiz-adv-x="422" vert-adv-y="2457" d="M-3 375l30 107h422l-30 -107h-422z" />
<glyph unicode="&#x2013;" vert-adv-y="2457" d="M150 375l30 107h785l-31 -107h-784z" />
<glyph unicode="&#x2014;" horiz-adv-x="1211" vert-adv-y="2457" d="M-3 375l30 107h1212l-31 -107h-1211z" />
<glyph unicode="&#x2018;" horiz-adv-x="587" vert-adv-y="2457" d="M339 1042q0 130 109 249q83 89 218 163l26 -40q-111 -71 -150 -102q-65 -55 -104 -137q-20 -42 -20 -80q0 -23 14 -23q7 0 21 11q27 21 66 21q53 0 85 -35q25 -27 25 -62q0 -54 -45 -103q-48 -52 -100 -52q-49 0 -90 44q-55 61 -55 146z" />
<glyph unicode="&#x2019;" horiz-adv-x="586" vert-adv-y="2457" d="M327 894q114 73 151.5 103.5t68.5 75.5q56 81 56 137q0 26 -16 26q-6 0 -20 -11q-26 -21 -71 -21q-50 0 -81 35q-25 28 -25 63q0 53 45 103q47 52 100 52q49 0 90 -44q55 -61 55 -147q0 -129 -109 -248q-84 -91 -218 -163z" />
<glyph unicode="&#x201a;" horiz-adv-x="586" vert-adv-y="2457" d="M-18 -331q114 73 152 103.5t69 75.5q56 81 56 137q0 26 -16 26q-6 0 -20 -10q-26 -21 -71 -21q-50 0 -82 35q-25 28 -25 62q0 53 45 103q48 52 100 52q50 0 90 -44q56 -62 56 -147q0 -129 -110 -248q-84 -90 -218 -163z" />
<glyph unicode="&#x201c;" horiz-adv-x="950" vert-adv-y="2457" d="M328 1039q0 160 161 293q65 54 189 122l33 -39q-122 -66 -179 -112q-123 -100 -123 -191q0 -23 15 -34q7 -5 12 -5q4 0 22 13q21 16 53 16q38 0 68 -27q35 -31 35 -79q0 -44 -31 -80q-42 -50 -108 -50q-58 0 -97 40q-50 52 -50 133zM706 1040q0 159 161 292 q66 55 189 122l34 -39q-123 -65 -180 -112q-123 -100 -123 -191q0 -23 15 -34q7 -5 12 -5q4 0 22 13q21 16 53 16q39 0 69 -27q35 -31 35 -80q0 -43 -31 -79q-42 -50 -108 -50q-58 0 -97 40q-51 51 -51 134z" />
<glyph unicode="&#x201d;" horiz-adv-x="950" vert-adv-y="2457" d="M311 914q110 47 166 89q68 52 110 124q23 40 23 78q0 25 -17 41q-7 6 -12 6t-14 -7q-37 -27 -71 -27q-33 0 -63 25q-41 33 -41 84q0 53 45 93q41 35 94 35t98 -40q56 -50 56 -138q0 -165 -155 -298q-80 -69 -204 -110zM681 914q108 46 166 89q69 52 110 124q22 40 22 77 q0 36 -23 47q-2 1 -5 1q-4 0 -14 -7q-35 -26 -71 -26q-35 0 -63 23q-39 33 -39 84q0 56 44 94q38 34 92 34q56 0 99 -38q55 -49 55 -140q0 -165 -153 -297q-81 -69 -206 -110z" />
<glyph unicode="&#x201e;" horiz-adv-x="950" vert-adv-y="2457" d="M-39 -325q110 47 166 89q68 52 110 124q23 41 23 77q0 25 -17 42q-6 6 -12 6q-5 0 -14 -7q-37 -27 -72 -27q-32 0 -62 25q-41 34 -41 83q0 54 45 94q40 35 93 35q54 0 99 -40q56 -50 56 -138q0 -165 -154 -298q-80 -68 -205 -110zM331 -325q107 46 166 90q69 52 110 124 q22 39 22 77q0 36 -23 47q-2 1 -5 1q-4 0 -14 -7q-34 -27 -73 -27q-33 0 -61 23q-39 33 -39 85q0 55 43 93q39 34 93 34q56 0 99 -38q55 -49 55 -141q0 -165 -153 -296q-81 -69 -205 -110z" />
<glyph unicode="&#x2022;" horiz-adv-x="1365" vert-adv-y="2457" d="M483 694q0 120 84 202q86 82 204 82q113 0 196 -83q84 -83 84 -201t-83 -201t-201 -83q-116 0 -199 82q-85 84 -85 202z" />
<glyph unicode="&#x2026;" horiz-adv-x="1624" vert-adv-y="2457" d="M112 91q0 62 43 110q40 45 96 45q38 0 67 -26q36 -32 36 -88q0 -62 -39 -107q-40 -46 -94 -46q-46 0 -80 34q-29 30 -29 78zM653 91q0 61 43 110q40 45 96 45q39 0 68 -26q36 -32 36 -88q0 -62 -39 -107q-40 -46 -94 -46q-47 0 -81 34q-29 30 -29 78zM1194 91 q0 62 43 110q40 45 96 45q39 0 68 -26q36 -32 36 -88q0 -61 -39 -107q-40 -46 -94 -46q-47 0 -81 34q-29 29 -29 78z" />
<glyph unicode="&#x202f;" horiz-adv-x="374" vert-adv-y="0" />
<glyph unicode="&#x2039;" horiz-adv-x="576" vert-adv-y="2457" d="M116 417l309 357l58 -44l-269 -310l167 -311l-73 -39z" />
<glyph unicode="&#x203a;" horiz-adv-x="576" vert-adv-y="2457" d="M113 114l269 310l-167 311l73 39l192 -347l-310 -357z" />
<glyph unicode="&#x205f;" horiz-adv-x="468" vert-adv-y="0" />
<glyph unicode="&#x2122;" horiz-adv-x="1913" vert-adv-y="2457" d="M239 1088l78 277h739l-78 -277h-49l17 62q4 14 4 38q0 66 -31 101q-27 30 -66 30h-110l-194 -686h105l-13 -46h-339l13 46h94l194 686h-88q-63 0 -117 -41q-71 -53 -94 -135l-16 -55h-49zM916 587l13 46h55q16 -1 28 7q8 9 26 60l175 619h-100l13 46h236l53 -574l405 574 h229l-13 -46h-94l-194 -686h105l-13 -46h-337l13 46h95l167 593q-209 -291 -449 -639h-39q-28 350 -55 635l-146 -515q-10 -37 -10 -48q0 -26 33 -26h56l-13 -46h-239z" />
<glyph unicode="&#x25fc;" horiz-adv-x="850" vert-adv-y="1700" d="M0 0v850h850v-850h-850z" />
</font>
</defs>
</svg>
