<?xml version="1.0" encoding="utf-8"?>
<!-- Generator: Adobe Illustrator 18.1.1, SVG Export Plug-In . SVG Version: 6.00 Build 0)  -->
<svg version="1.1" id="Layer_1" xmlns="http://www.w3.org/2000/svg" xmlns:xlink="http://www.w3.org/1999/xlink" x="0px" y="0px"
	 viewBox="295.9 498.1 200 227.7" enable-background="new 295.9 498.1 200 227.7" xml:space="preserve">
<g>
	<path fill="#010101" d="M396,498.1c44.7,0,80.9,36.2,80.9,80.9c0,44.7-36.2,80.8-80.9,80.8s-80.8-36.2-80.8-80.8
		C315.2,534.4,351.3,498.1,396,498.1z M446.8,543.6v-3.9h-25.6v3.9h9.1l0.1,0.1l-13.6,10.6h-40.3l-13.7-10.7l0,0h8.2v-3.9h-25.7v3.9
		h11.4v11.2c-6.6,1.8-11.4,7.7-11.4,14.9c0,7.1,4.8,13.2,11.4,14.9v23.9H349v-9h-3.9v5.2v1.9v5.7h0.1h3.7h7.6v10.7h-11.4v3.9h25.6
		v-3.9h-10.4v-10.7h22.3V623h-5.3v3.6h14.2V623h-5.2v-10.9h10.2l12.1,14.6h7.2v-3.6h-5.4l-9.3-10.9h30c0.4,0,0.8,0,1.2-0.1v10.8
		h-11.4v3.9h25.6v-3.9h-10.4v-11.5c6.1-2.1,10.4-7.8,10.4-14.6c0-6.8-4.4-12.5-10.4-14.6v-24.1h6.6v1.4v1.9v5.7h3.9v-12.8h-0.1h-3.7
		h-6.6v-10.7H446.8z M411.8,558l-2.8,2.1l-12.5,9.7L381.2,558H411.8z M360.4,546.7L360.4,546.7l9.7,7.5h-9.5c-0.1,0-0.2,0-0.3,0
		V546.7L360.4,546.7z M349,569.7c0-5,3.2-9.3,7.6-10.9v21.9C352.1,579,349,574.7,349,569.7z M406.7,608.5h-20.3v-11.9h19.9
		c0.6,0,6.1,0.1,6.1,5.7C412.4,607.6,408.1,608.4,406.7,608.5z M431.3,608.5h-17.2c1.1-1.5,1.9-3.5,1.9-6.2c0-7.4-6.3-9.3-9.7-9.3
		h-28.9v3.6h5.3v11.9h-22.3v-23.3c0.1,0,0.2,0,0.3,0h70.6V585c0.4,0,0.8,0,1.2,0.1v23.2C432.1,608.5,431.7,608.5,431.3,608.5z
		 M443,596.8c0,4.6-2.7,8.7-6.6,10.5v-21.1C440.2,588.1,443,592.2,443,596.8z M432.5,581.4c-0.4-0.1-0.8-0.1-1.2-0.1h-70.6v0.1
		c-0.1,0-0.2,0-0.3,0v-23.3c0.1,0,0.2,0,0.3,0H375l5.3,4.1l16.2,12.6l21.5-16.7h14.4L432.5,581.4L432.5,581.4z M422.9,554.3l9.6-7.4
		v7.4H422.9z M405.4,526.6v-3.1l-9.3-1.4v-3.7h-4.8v7.7h-5.5l2.4,2.8l1.1,2.1l2.1,1l1.2-1.3h1l2,2l1.9,3.9l2.8,0.8l-0.3-2.3l2.1-3.2
		l3.6-1.6l0.5-2L405.4,526.6z"/>
	<g>
		<g>
			<path fill="#010101" d="M304.3,688.4c1.2-5.7,2.5-11.3,3.8-16.7c1.5,0.1,3,0.2,4.5,0.3c0,9.2,0,18.4,0,27.6
				c-1.4,0.1-2.7,0.2-4.1,0.3c0.1-6.2,0.3-12.3,0.4-18.5c-1,4.4-2,9-3.1,13.5c-1,0.1-2.1,0.1-3.1,0.2c-1-4.6-2-9.2-3.1-13.9
				c0.1,6.5,0.3,13,0.4,19.5c-1.4,0.1-2.7,0.2-4.1,0.4c0-10.2,0-20.3,0-30.5c1.5,0.2,3,0.3,4.5,0.4
				C301.8,676.9,303,682.8,304.3,688.4z"/>
			<path fill="#010101" d="M336,673.6c0,6.6,0,13.3,0,19.8c0,3.1-1.6,4.7-4.9,4.9c-1.1,0.1-2.3,0.2-3.5,0.2
				c-3.3,0.2-4.9-1.3-4.9-4.6c0-7.1,0-14.1,0-21.2c1.4,0.1,2.7,0.2,4.1,0.3c0,7,0,13.9,0,20.9c0,1.1,0.6,1.6,1.8,1.6
				c0.6,0,1.1-0.1,1.6-0.1c1.1-0.1,1.6-0.6,1.6-1.7c0-6.7,0-13.5,0-20.3C333.3,673.5,334.6,673.5,336,673.6z"/>
			<path fill="#010101" d="M355.9,697.1c-3.2,0.1-6.5,0.3-9.7,0.4c0-7.8,0-15.6,0-23.5c1.4,0.1,2.7,0.1,4.1,0.2c0,6.7,0,13.5,0,20.3
				c1.9-0.1,3.7-0.1,5.6-0.2C355.9,695.3,355.9,696.2,355.9,697.1z"/>
			<path fill="#010101" d="M369,677.6c0,6.4,0,12.7,0,19.2c-1.4,0.1-2.7,0.1-4.1,0.1c0-6.5,0-12.9,0-19.3c-1.3-0.1-2.6-0.1-3.9-0.1
				c0-0.9,0-1.8,0-2.7c4,0.1,7.9,0.2,11.9,0.3c0,0.9,0,1.8,0,2.6C371.6,677.7,370.3,677.7,369,677.6z"/>
			<path fill="#010101" d="M381.6,696.5c0-7.1,0-14.2,0-21.3c1.4,0,2.7,0.1,4.1,0.1c0,7.1,0,14.1,0,21.2
				C384.4,696.5,383,696.5,381.6,696.5z"/>
			<path fill="#010101" d="M403.8,680.9c0-0.6,0-1.2,0-1.9c0-0.9-0.6-1.2-1.8-1.2c-0.2,0-0.5,0-0.6,0c-1.2,0-1.8,0.5-1.8,1.2
				c0,1.2,0,2.3,0,3.5c0,0.4,0.1,0.7,0.3,0.8c0.2,0.1,0.6,0.3,1.1,0.5c1.3,0.5,2.6,1,3.9,1.4c0.9,0.3,1.5,0.6,1.8,0.8
				c0.3,0.2,0.6,0.4,0.9,0.7c0.2,0.3,0.3,0.8,0.3,1.5c0,1.5,0,3,0,4.5c0,2.4-1.6,3.6-4.9,3.5c-0.9,0-1.7,0-2.5,0
				c-3.3,0-4.9-1.3-4.9-3.9c0-0.3,0-0.7,0-1.1c1.4,0,2.7,0,4.1,0c0,0.4,0,0.7,0,1.1c0,0.9,0.6,1.2,1.8,1.2c0.2,0,0.5,0,0.7,0
				c1.1,0,1.6-0.4,1.6-1.2c0-1.2,0-2.4,0-3.6c0-0.4-0.1-0.7-0.3-0.8c-0.2-0.1-0.6-0.3-1.1-0.5c-1.3-0.5-2.6-1-3.9-1.5
				c-0.9-0.3-1.5-0.6-1.9-0.8c-0.4-0.2-0.7-0.5-0.9-0.9c-0.2-0.3-0.3-0.8-0.3-1.4c0-1.4,0-2.9,0-4.3c0-2.4,1.6-3.6,4.9-3.6
				c0.9,0,1.7,0,2.5,0c3.3,0,4.9,1.2,4.9,3.6c0,0.7,0,1.4,0,2.1C406.5,680.9,405.2,680.9,403.8,680.9z"/>
			<path fill="#010101" d="M417.6,675.1c2.5-0.1,5-0.1,7.4-0.2c3.3-0.1,4.9,1.1,4.9,3.7c0,2.2,0,4.4,0,6.6c0,2.5-1.6,3.7-4.9,3.7
				c-1.1,0-2.3,0-3.4,0c0,2.6,0,5.3,0,7.9c-1.4-0.1-2.7-0.1-4.1-0.1C417.6,689.4,417.6,682.3,417.6,675.1z M421.8,686.2
				c0.9,0,1.8,0,2.6,0c1.1,0,1.6-0.5,1.6-1.3c0-2,0-4.1,0-6.1c0-0.9-0.6-1.2-1.8-1.2c-0.8,0-1.6,0.1-2.4,0.1
				C421.8,680.5,421.8,683.4,421.8,686.2z"/>
			<path fill="#010101" d="M444.4,697.5c-3.3-0.2-4.9-1.5-4.9-4.1c0-5,0-10,0-15.1c0-2.6,1.6-4,4.9-4.1c1.3-0.1,2.6-0.1,3.9-0.2
				c3.3-0.2,4.9,1.1,4.9,3.9c0,5.3,0,10.6,0,15.9c0,2.7-1.6,4-4.9,3.9C446.9,697.6,445.7,697.5,444.4,697.5z M445.3,694.7
				c0.7,0,1.4,0.1,2.1,0.1c1.1,0.1,1.6-0.4,1.6-1.3c0-5.1,0-10.1,0-15.2c0-0.9-0.6-1.4-1.8-1.3c-0.6,0-1.3,0.1-1.9,0.1
				c-1.2,0.1-1.8,0.5-1.8,1.4c0,5,0,9.9,0,14.9C443.5,694.2,444.2,694.6,445.3,694.7z"/>
			<path fill="#010101" d="M463.1,673.2c2.7-0.2,5.3-0.3,8-0.5c3.1-0.2,4.6,1.2,4.6,4.3c0,2.2,0,4.5,0,6.7c0,2.4-0.8,3.9-2.4,4.5
				c1,3.7,1.9,7.5,2.8,11.3c-1.3-0.1-2.5-0.2-3.9-0.3c-0.9-3.6-1.8-7.2-2.7-10.8c-0.9,0-1.6,0-2.5-0.1c0,3.5,0,7,0,10.4
				c-1.4-0.1-2.7-0.2-4.1-0.3C463.1,690.1,463.1,681.6,463.1,673.2z M467.2,685.4c0.9,0,1.8,0,2.7,0c1.2,0,1.8-0.6,1.8-1.9
				c0-1.9,0-3.8,0-5.7c0-1.3-0.6-1.9-1.8-1.8c-0.9,0.1-1.8,0.1-2.7,0.1C467.2,679.2,467.2,682.3,467.2,685.4z"/>
			<path fill="#010101" d="M492.1,674.6c0,8.7,0,17.4,0,26.2c-1.4-0.1-2.7-0.2-4.1-0.3c0-8.5,0-17.1,0-25.5
				c-1.3,0.1-2.6,0.2-3.9,0.2c0-1.1,0-2.3,0-3.5c4-0.3,7.9-0.7,11.9-1.1c0,1.2,0,2.5,0,3.7C494.6,674.4,493.4,674.5,492.1,674.6z"/>
		</g>
		<g>
			<g>
				<path fill="#010101" d="M382.8,712.6l-6-8.3h-3l-6,8.3h-1.5v1.9h5.6v-1.9h-1.5l1.1-1.6h7.3l1.1,1.6h-1.5v1.9h5.6v-1.9H382.8z
					 M372.9,709.2l2.5-3.5l2.5,3.5H372.9z"/>
				<polygon fill="#010101" points="405.9,704.3 404.3,704.3 404.2,704.3 401.9,704.3 401.9,704.3 400.3,704.3 400.3,706.2 
					401.9,706.2 401.9,712.6 395.1,704.3 393.8,704.3 391.5,704.3 391.5,704.3 389.9,704.3 389.9,706.2 391.5,706.2 391.5,712.6 
					391.5,712.6 389.9,712.6 389.9,714.4 395.4,714.4 395.4,712.6 393.8,712.6 393.8,712.6 393.8,706.2 393.9,706.2 400.8,714.4 
					404.2,714.4 404.2,706.2 405.9,706.2 				"/>
				<path fill="#010101" d="M421.2,708h1.9v-3.7h-1.9h-3.3c-3,0-4.6,0.9-5.3,1.7c-0.7,0.8-1.1,1.9-1.1,3.3l0,0l0,0
					c0,1.4,0.3,2.5,1.1,3.4c0.8,0.9,2.4,1.7,5.3,1.7h5.3v-2.1h-5.3c-1.8,0-2.9-0.5-3.4-1c-0.4-0.5-0.6-1-0.6-2c0-1,0.2-1.5,0.6-2
					c0.5-0.6,1.6-1,3.4-1h3.4v0.5L421.2,708L421.2,708L421.2,708z"/>
				<polygon fill="#010101" points="444.2,706.2 444.2,704.3 442.5,704.3 442.5,704.3 440.2,704.3 440.2,704.3 438.5,704.3 
					438.5,706.2 440.2,706.2 440.2,708 432.5,708 432.5,706.2 434.1,706.2 434.1,704.3 432.5,704.3 432.5,704.3 430.1,704.3 
					430.1,704.3 428.5,704.3 428.5,706.2 430.1,706.2 430.1,712.6 430.1,712.6 428.5,712.6 428.5,714.4 434.1,714.4 434.1,712.6 
					432.5,712.6 432.5,709.8 440.2,709.8 440.2,712.6 438.5,712.6 438.5,714.4 444.2,714.4 444.2,712.6 442.5,712.6 442.5,712.6 
					442.5,706.2 				"/>
				<path fill="#010101" d="M357.2,709.9L357.2,709.9c1.8-0.1,2.5-0.4,3-0.9c0.6-0.6,0.7-1.3,0.7-1.9c0-0.7-0.2-1.4-0.7-1.9
					c-0.6-0.6-1.5-0.9-4-0.9h-3h-4h-1.6v1.9h1.6v6.4h-1.6v1.9h5.6v-1.9h-1.6v-2.5h3.1l0,0l2.2,2.5h-1.2v1.9h5.1v-1.9h-1.5
					L357.2,709.9z M351.8,706.2h1.6h2.9c1.2,0,1.8,0.1,2,0.3c0.2,0.2,0.2,0.4,0.2,0.7c0,0.3-0.1,0.5-0.2,0.7c-0.3,0.3-1,0.4-2,0.4
					h-4.5L351.8,706.2L351.8,706.2z"/>
			</g>
			<g>
				<rect x="329.4" y="708.5" fill="#010101" width="12.5" height="1.7"/>
			</g>
			<g>
				<rect x="450" y="708.5" fill="#010101" width="12.5" height="1.7"/>
			</g>
		</g>
	</g>
	<g>
		<path d="M360.4,721.5v0.9h1.5v1.2h-1.5v2.1H359v-5.4h3.1v1.2L360.4,721.5L360.4,721.5z"/>
		<path d="M371.4,725.7H370v-5.4h1.4V725.7z"/>
		<path d="M381.6,725.7h-1.4v-4.2H379v-1.2h3.7v1.2h-1.1L381.6,725.7L381.6,725.7z"/>
		<path d="M390.4,720.3h1.4l2.5,3.3l0,0v-3.3h1.4v5.4h-1.4l-2.5-3.3l0,0v3.3h-1.4V720.3z"/>
		<path d="M405.3,721.5v0.9h1.6v1.2h-1.6v0.9h1.6v1.2h-3.1v-5.4h3.1v1.2L405.3,721.5L405.3,721.5z"/>
		<path d="M417.9,721.7c-0.1-0.1-0.3-0.2-0.5-0.3c-0.2-0.1-0.3-0.1-0.5-0.1c-0.1,0-0.1,0-0.2,0.1c-0.1,0-0.1,0.1-0.2,0.1
			c-0.1,0.1-0.1,0.1-0.2,0.1c-0.1,0.1-0.1,0.1-0.1,0.2c0,0.1,0,0.2,0.1,0.2c0.1,0.1,0.1,0.1,0.2,0.2c0.1,0.1,0.1,0.1,0.2,0.1
			c0.1,0,0.1,0.1,0.2,0.1l0.3,0.1c0.2,0.1,0.3,0.1,0.5,0.2c0.2,0.1,0.3,0.2,0.4,0.3s0.2,0.2,0.3,0.4s0.1,0.3,0.1,0.6
			c0,0.3-0.1,0.5-0.1,0.8c-0.1,0.3-0.2,0.5-0.5,0.7c-0.2,0.2-0.5,0.3-0.7,0.4c-0.3,0.1-0.5,0.1-0.8,0.1c-0.3,0-0.7-0.1-1-0.2
			c-0.3-0.1-0.6-0.3-0.9-0.5l0.6-1.1c0.2,0.2,0.3,0.3,0.6,0.4c0.2,0.1,0.5,0.2,0.7,0.2c0.1,0,0.2,0,0.2-0.1c0.1,0,0.2-0.1,0.2-0.1
			c0.1-0.1,0.1-0.1,0.2-0.2c0.1-0.1,0.1-0.2,0.1-0.2c0-0.1-0.1-0.2-0.1-0.2c-0.1-0.1-0.1-0.1-0.2-0.2c-0.1-0.1-0.2-0.1-0.3-0.1
			c-0.1-0.1-0.2-0.1-0.3-0.1c-0.2-0.1-0.4-0.1-0.6-0.2c-0.2-0.1-0.3-0.2-0.5-0.3c-0.1-0.1-0.2-0.2-0.3-0.4c-0.1-0.2-0.1-0.4-0.1-0.6
			c0-0.3,0.1-0.5,0.1-0.7c0.1-0.2,0.2-0.4,0.4-0.6c0.2-0.2,0.3-0.3,0.6-0.3c0.2-0.1,0.5-0.1,0.7-0.1c0.1,0,0.3,0,0.5,0.1
			c0.2,0,0.3,0.1,0.5,0.1c0.2,0.1,0.3,0.1,0.5,0.1c0.1,0.1,0.3,0.1,0.4,0.2L417.9,721.7z"/>
		<path d="M429.5,721.7c-0.1-0.1-0.3-0.2-0.5-0.3c-0.2-0.1-0.3-0.1-0.5-0.1c-0.1,0-0.1,0-0.2,0.1c-0.1,0-0.1,0.1-0.2,0.1
			c-0.1,0.1-0.1,0.1-0.2,0.1c-0.1,0.1-0.1,0.1-0.1,0.2c0,0.1,0,0.2,0.1,0.2c0.1,0.1,0.1,0.1,0.2,0.2c0.1,0.1,0.1,0.1,0.2,0.1
			c0.1,0,0.1,0.1,0.2,0.1l0.3,0.1c0.2,0.1,0.3,0.1,0.5,0.2c0.2,0.1,0.3,0.2,0.4,0.3s0.2,0.2,0.3,0.4s0.1,0.3,0.1,0.6
			c0,0.3-0.1,0.5-0.1,0.8c-0.1,0.3-0.2,0.5-0.5,0.7c-0.2,0.2-0.5,0.3-0.7,0.4c-0.3,0.1-0.5,0.1-0.8,0.1c-0.3,0-0.7-0.1-1-0.2
			c-0.3-0.1-0.6-0.3-0.9-0.5l0.6-1.1c0.2,0.2,0.3,0.3,0.6,0.4c0.2,0.1,0.5,0.2,0.7,0.2c0.1,0,0.2,0,0.2-0.1c0.1,0,0.2-0.1,0.2-0.1
			c0.1-0.1,0.1-0.1,0.2-0.2c0.1-0.1,0.1-0.2,0.1-0.2c0-0.1-0.1-0.2-0.1-0.2c-0.1-0.1-0.1-0.1-0.2-0.2c-0.1-0.1-0.2-0.1-0.3-0.1
			c-0.1-0.1-0.2-0.1-0.3-0.1c-0.2-0.1-0.4-0.1-0.6-0.2c-0.2-0.1-0.3-0.2-0.5-0.3c-0.1-0.1-0.2-0.2-0.3-0.4c-0.1-0.2-0.1-0.4-0.1-0.6
			c0-0.3,0.1-0.5,0.1-0.7c0.1-0.2,0.2-0.4,0.4-0.6c0.2-0.2,0.3-0.3,0.6-0.3c0.2-0.1,0.5-0.1,0.7-0.1c0.1,0,0.3,0,0.5,0.1
			c0.2,0,0.3,0.1,0.5,0.1c0.2,0.1,0.3,0.1,0.5,0.1c0.1,0.1,0.3,0.1,0.4,0.2L429.5,721.7z"/>
	</g>
</g>
</svg>
